<?xml version="1.0" encoding="utf-8"?>
<!-- Generator: Adobe Illustrator 18.1.1, SVG Export Plug-In . SVG Version: 6.00 Build 0)  -->
<svg version="1.1" id="Layer_1" xmlns="http://www.w3.org/2000/svg" xmlns:xlink="http://www.w3.org/1999/xlink" x="0px" y="0px"
	 viewBox="-349 251 100 100" enable-background="new -349 251 100 100" xml:space="preserve">
<g>
	<path d="M-327,301.9l26.1,36.4c0.5,0.7,1.2,1,2,1.1c0,0,0,0,0,0c0.8,0,1.6-0.4,2-1.1l25.9-36.4c0.5-0.8,0.6-1.8,0.2-2.6
		c-0.4-0.8-1.3-1.4-2.2-1.4h-12.2l0-32.7c0-1.4-1.1-2.5-2.5-2.5l-22.5,0c-1.4,0-2.5,1.1-2.5,2.5v32.7H-325c-0.9,0-1.8,0.5-2.2,1.4
		C-327.6,300.1-327.6,301.1-327,301.9z"/>
</g>
</svg>
