<?xml version="1.0" encoding="utf-8"?>
<!-- Generator: Adobe Illustrator 18.1.1, SVG Export Plug-In . SVG Version: 6.00 Build 0)  -->
<svg version="1.1" xmlns="http://www.w3.org/2000/svg" xmlns:xlink="http://www.w3.org/1999/xlink" x="0px" y="0px"
	 viewBox="-429 231 100 100" enable-background="new -429 231 100 100" xml:space="preserve">
<g id="Layer_1" display="none">
	<g display="inline">
		<path d="M-357.2,295.1l-14-14l14-14c0.2-0.1,0.3-0.3,0.5-0.5l0,0l0,0c0.6-0.7,1-1.7,1-2.7c0-1.3-0.6-2.5-1.5-3.2l-19.6-19.6
			c-0.8-1-2-1.6-3.3-1.6c-2.3,0-4.3,1.9-4.3,4.3c0,0.4,0.1,0.8,0.2,1.2v23.3l-10.7-10.7c-0.8-0.8-1.9-1.4-3.1-1.4
			c-2.3,0-4.3,1.9-4.3,4.3c0,1.2,0.5,2.3,1.4,3.1l16.7,16.7v2.1L-401,299c0,0,0,0,0,0l0,0l0,0c-0.7,0.8-1.2,1.8-1.2,2.9
			c0,2.3,1.9,4.3,4.3,4.3c1.3,0,2.4-0.6,3.2-1.5l10.6-10.6v24.1c0,0.1,0,0.1,0,0.2c0,0.1,0,0.1,0,0.2v0h0c0.1,2.3,1.9,4.1,4.2,4.1
			c1.3,0,2.4-0.6,3.2-1.4l0,0l19.9-19.9c0,0,0,0,0.1-0.1l0.2-0.2l0,0c0.6-0.7,1-1.7,1-2.8C-355.7,297-356.3,295.8-357.2,295.1z
			 M-365.9,298.3l-9.8,9.8v-19.7L-365.9,298.3z M-375.8,273.7v-19.6l9.8,9.8L-375.8,273.7z"/>
	</g>
</g>
<g id="Layer_2">
	<g>
		<path d="M-338.9,244.6c-0.2-0.8-0.6-1.5-1.2-2.1c-0.6-0.7-1.4-1-2.2-1.4c-0.2-0.1-0.4-0.2-0.7-0.3c-0.2,0-0.5-0.1-0.7-0.1
			c0,0-70.6,0-70.6,0c-0.4,0-0.8,0-1.2,0.1c0,0,0,0,0,0c-0.4,0.1-0.8,0.3-1.1,0.5c-0.6,0.4-1.1,0.8-1.5,1.3
			c-0.1,0.1-0.2,0.2-0.3,0.4c-0.1,0.1-0.1,0.2-0.2,0.3c-0.1,0.1-0.2,0.3-0.2,0.5c0,0.1-0.1,0.3-0.1,0.4c-0.1,0.1-0.1,0.3-0.1,0.5
			c0,0.1,0,0.1,0,0.2c0,0.1,0,0.2,0,0.3c0,0.1,0,0.2,0,0.3c0,0.1,0,0.2,0,0.4c0,5.4,0,10.8,0,16.3v39.1c0,2.7,2.2,4.9,4.9,4.9h17.4
			c0.6,0,0.9,0.3,1.3,0.7c4.3,4.3,8.5,8.5,12.8,12.8c2.3,2.3,5.3,2.3,7.6,0c4.3-4.3,8.5-8.5,12.8-12.8c0.4-0.4,0.8-0.7,1.4-0.7h17.3
			c1.7,0,3.2-0.9,4.1-2.2c0.1-0.1,0.1-0.2,0.2-0.3c0.1-0.1,0.1-0.3,0.2-0.4c0.1-0.1,0.1-0.3,0.2-0.4c0-0.1,0.1-0.2,0.1-0.3
			c0.1-0.4,0.2-0.9,0.2-1.4c0,0,0-55.4,0-55.4C-338.8,245.3-338.9,245-338.9,244.6z M-348.9,296c-0.3,0-0.5,0-0.8,0
			c-3.5,0-7.1,0-10.6,0c-1.1,0-2.3,0-3.4,0c-1.6,0-2.9,0.5-4,1.7c-2.8,2.8-5.5,5.5-8.3,8.3c-0.8,0.8-2.7,2.8-3,3.2
			c-1.1-1.2-2.1-2.2-3.1-3.2l-0.4-0.4c-2.7-2.7-5.3-5.3-8-8c-1-1-2.2-1.5-3.6-1.5c-4.8,0-9.6,0-14.4,0h-0.6v-45.2h60.2V296z"/>
		<path d="M-358.9,283.5c0-1.7,0-3.4,0-5.1c0-1.4-1.1-2.5-2.5-2.5c-1,0-2,0-3,0c-10.5,0-21.1,0-31.6,0c-2,0-3.3,1.1-3.1,3.2
			c0.1,1.4,0,2.8,0,4.2c0,1.7,1,2.8,2.7,2.8c5.8,0,11.6,0,17.4,0c5,0,10,0,15,0c0,0,0,0,0,0c0,0,0,0,0,0c0.9,0,1.7,0,2.6,0
			C-360,286-358.9,284.9-358.9,283.5z"/>
		<path d="M-379,260.9c5.8,0,11.6,0,17.4,0c1.7,0,2.7,1,2.7,2.7c0,1.6,0,3.1,0,4.7c0,1.6-1.1,2.7-2.6,2.7c-11.5,0-23.1,0-34.6,0
			c-2,0-3-0.9-3-3c0-1.5,0-3,0-4.6c0-1.5,1-2.5,2.5-2.5C-390.7,260.9-384.9,260.9-379,260.9z"/>
	</g>
</g>
</svg>
