<?xml version="1.0" encoding="utf-8"?>
<!-- Generator: Adobe Illustrator 18.1.1, SVG Export Plug-In . SVG Version: 6.00 Build 0)  -->
<svg version="1.1" id="Layer_1" xmlns="http://www.w3.org/2000/svg" xmlns:xlink="http://www.w3.org/1999/xlink" x="0px" y="0px"
	 viewBox="0 0 400 120" style="enable-background:new 0 0 400 120" xml:space="preserve">
<g id="Arrow_25">
</g>
<g>
	<g>
		<g>
			<polygon style="fill:#5E9BD3;" points="3.1,44.2 2.1,42.1 57,16 66.7,20.7 65.7,22.8 57,18.5 			"/>
		</g>
		<g>
			<path style="fill:#5E9BD3;" d="M155.5,27.6"/>
			<path style="fill:none;stroke:#FFFFFF;stroke-width:6;" d="M155.5,27.6"/>
		</g>
		<g>
			<polygon style="fill:#5E9BD3;" points="56.8,28.6 55.7,26.6 98.8,3.6 141.6,26.6 140.5,28.6 98.8,6.2 			"/>
		</g>
		<g>
			<polygon style="fill:#5E9BD3;" points="193.6,44.2 140.7,18.6 131.9,23.6 130.7,21.5 140.6,16 194.6,42.1 			"/>
		</g>
		<g>
			<g>
				<g>
					<path style="fill:#5E9BD3;" d="M12.5,64.4c1.2-0.1,1.8-0.1,2.9-0.2c0-5.2,0-7.8,0-12.7c0-0.4,0-0.7-0.1-0.8
						c-0.1-0.1-0.2-0.3-0.5-0.4c-0.3-0.2-0.4-0.6-0.4-1.3c0-0.9,0-1.5,0.1-1.7c0.1-0.2,0.2-0.3,0.5-0.4c3.2-0.4,4.8-0.7,8-1.3
						c0.4-0.1,0.6,0,0.6,0.1c0.1,0.2,0.1,0.7,0.1,1.6c0,0.6,0,0.9-0.1,1c-0.1,0.1-0.3,0.4-0.8,0.7c-0.5,0.4-0.7,1-0.7,1.7
						c0,10.5-0.1,21-0.1,31.5c0,0.8,0.3,1.4,0.8,1.9c0.4,0.4,0.6,0.7,0.6,1c0,0.6,0,0.9,0,1.5c0,0.3,0,0.5-0.1,0.6
						c-0.1,0.1-0.3,0.2-0.6,0.2c-3.2,0-4.8,0-8,0c-0.3,0-0.4-0.1-0.5-0.2c-0.1-0.1-0.1-0.7-0.1-1.8c0-0.5,0.2-1,0.5-1.3
						c0.4-0.4,0.6-0.8,0.6-1.2c0-6.1,0-9.4,0-15.9c-1.2,0.1-1.8,0.1-2.9,0.2c0,6.4,0,9.6,0,15.8c0,0.5,0.2,0.9,0.5,1.2
						c0.3,0.3,0.5,0.8,0.5,1.4c0,0.9,0,1.3-0.1,1.5c-0.1,0.1-0.2,0.2-0.4,0.2c-3.2,0-4.8,0-8.1,0c-0.3,0-0.4-0.1-0.5-0.2
						c-0.1-0.1-0.1-0.7-0.1-1.7c0-0.5,0-0.8,0.1-0.9c0.1-0.1,0.2-0.3,0.5-0.5c0.5-0.4,0.8-0.8,0.8-1.4c0-9.9,0-19.9,0-29.8
						c0-0.5-0.2-0.9-0.7-1.3c-0.5-0.4-0.7-1.1-0.7-1.9c0-0.9,0.1-1.4,0.2-1.6c0.1-0.2,0.3-0.3,0.7-0.3c3,0,4.5-0.1,7.5-0.5
						c0.3,0,0.8,0,0.9,0.2c0.1,0.1,0.4,0.5,0.4,1c0,0.5,0,0.7,0,1.1c0,0.3-0.4,0.6-0.7,0.8c-0.4,0.3-0.7,0.8-0.7,1.4
						C12.6,56.7,12.5,59.3,12.5,64.4z"/>
					<path style="fill:#5E9BD3;" d="M25,47.2c0-0.5,0-0.8,0-1.3c0-0.5,0.2-0.8,0.6-0.9c3.6-0.8,5.3-1.2,8.9-2.1
						c0.3-0.1,0.5-0.1,0.6,0c0.1,0.1,0.1,0.4,0.1,1c0,0.9,0,1.4-0.1,1.7c-0.1,0.2-0.2,0.4-0.5,0.5c-0.8,0.4-1.2,1.1-1.2,2.3
						c-0.1,11.3-0.1,22.6-0.2,33.9c0,0.7,0.3,1.2,0.8,1.5c0.4,0.2,0.6,0.4,0.6,0.6c0.1,0.2,0.1,0.5,0.1,1c0,0.4,0,0.6,0,1
						c0,0.5,0,0.8-0.1,0.9c-0.1,0.1-0.3,0.1-0.6,0.1c-3.6,0-5.4,0-9,0c-0.3,0-0.5-0.2-0.5-0.5c0-1.1,0-1.9,0.1-2.1
						c0.1-0.3,0.3-0.5,0.6-0.6c0.7-0.3,1-0.7,1-1.4c0-10.7,0.1-21.4,0.1-32c0-0.7-0.1-1.2-0.2-1.6c-0.1-0.3-0.4-0.6-0.8-0.7
						c-0.3-0.1-0.5-0.2-0.6-0.4C25.1,47.9,25,47.6,25,47.2z"/>
					<path style="fill:#5E9BD3;" d="M49,84.9c-1.1,2.1-2.5,2.9-4.1,2.9c-2.5,0-4.6-1.8-6.2-6.2c-1.6-4.3-2.3-9.9-2.3-16.4
						c0.1-7.5,1-13.5,2.9-18.2c1.8-4.7,4-7,6.5-7.7C47,39,48,39.1,49,39.7c0.3,0.2,0.5,0.2,0.7,0.2c0.2-0.1,0.4-0.4,0.6-1
						c0.1-0.6,0.4-0.9,0.8-1c0.1,0,0.1,0,0.2-0.1c0.2,0,0.4-0.1,0.6-0.1c0.4,0,0.6,0.3,0.7,0.9c0.5,3.1,0.7,4.9,1.1,8.7
						c0.1,1,0.2,1.7,0.2,2c0,0.7-0.3,1.2-1,1.3c-0.6,0.1-1,0.1-1.2-0.2c-0.2-0.3-0.5-1.3-1.1-3c-0.7-2.3-1.4-3.7-1.9-4.4
						s-1.2-1-1.8-0.8c-1.7,0.4-2.5,2.5-2.6,6.7c-0.1,10.9-0.2,21.8-0.3,32.7c0,2.2,0.4,3.2,1.4,3.2c1,0,1.5-1,1.5-3.2
						c0-5.9,0.1-9.3,0.1-16c0-1.1-0.2-1.8-0.6-2c-0.5-0.3-0.7-0.9-0.7-2c0-1.1,0.1-1.8,0.2-2.1c0.1-0.2,0.4-0.4,0.8-0.5
						c3.1-0.5,4.7-0.8,7.8-1.3c0.4-0.1,0.6,0,0.8,0.3c0.1,0.2,0.2,0.8,0.2,1.7c0,0.9-0.1,1.6-0.1,1.9c-0.1,0.3-0.3,0.6-0.6,0.9
						c-0.4,0.4-0.7,1-0.7,1.9c-0.1,9.2-0.1,13.9-0.2,21.1c0,1.1-0.1,1.7-0.2,2c-0.1,0.3-0.4,0.4-0.8,0.4c-0.4,0-0.7,0-0.8-0.1
						c-0.2-0.1-0.4-0.3-0.7-0.7C50.6,86,49.8,85.2,49,84.9z"/>
					<path style="fill:#5E9BD3;" d="M64.8,57.2c1.2-0.1,1.8-0.2,3-0.4c0.1-7.3,0.1-11,0.2-17c0-0.5,0-0.8-0.1-0.9
						c-0.1-0.1-0.2-0.3-0.5-0.5c-0.3-0.2-0.4-0.7-0.4-1.5c0-1,0-1.6,0.1-1.8c0.1-0.2,0.3-0.4,0.6-0.4c3.5-0.7,5.2-0.9,8.5-1.4
						c0.4-0.1,0.6,0,0.7,0.2c0.1,0.2,0.1,0.8,0.1,1.9c0,0.7-0.1,1.1-0.1,1.2c-0.1,0.1-0.3,0.4-0.8,0.8c-0.5,0.5-0.7,1.1-0.7,2
						c-0.2,14-0.5,28-0.7,42.1c0,1,0.2,1.7,0.8,2.3c0.4,0.4,0.6,0.8,0.6,1.2c0,0.7,0,1.1,0,1.8c0,0.4,0,0.6-0.1,0.7
						c-0.1,0.1-0.3,0.2-0.6,0.2c-3.2,0-4.8,0-8,0c-0.3,0-0.4-0.1-0.5-0.2c-0.1-0.1-0.1-0.7-0.1-1.9c0-0.6,0.2-1.1,0.5-1.5
						c0.4-0.4,0.6-0.9,0.6-1.5c0.1-7.4,0.1-12.3,0.2-21.3c-1.2,0.1-1.8,0.2-3,0.3c-0.1,9.1-0.1,13.9-0.2,21.3c0,0.6,0.2,1.1,0.5,1.5
						c0.3,0.4,0.5,0.9,0.5,1.6c0,1,0,1.5-0.1,1.6c-0.1,0.1-0.2,0.2-0.4,0.2c-3.2,0-4.8,0-8.1,0c-0.3,0-0.4-0.1-0.5-0.2
						c-0.1-0.2-0.1-0.7-0.1-1.8c0-0.5,0-0.9,0.1-1c0.1-0.2,0.2-0.4,0.5-0.6c0.5-0.4,0.8-1,0.8-1.7c0.1-13.2,0.2-26.4,0.3-39.7
						c0-0.6-0.2-1-0.7-1.4c-0.4-0.4-0.7-1.1-0.7-2c0-0.9,0.1-1.5,0.2-1.7c0.1-0.2,0.3-0.3,0.7-0.4c3-0.7,4.5-1.1,7.5-1.7
						c0.3-0.1,0.6,0,0.7,0.1s0.2,0.5,0.2,1.1c0,0.5,0,0.8,0,1.3c0,0.3-0.2,0.7-0.5,1c-0.4,0.4-0.6,1-0.6,1.7
						C64.9,46.3,64.8,50,64.8,57.2z"/>
					<path style="fill:#5E9BD3;" d="M90.1,84.6c-1.1,2.3-2.5,3.3-4.1,3.3c-2.5,0-4.5-1.9-6-7c-1.5-5.1-2.2-12-2-20.3
						c0.2-9.4,1.2-16.8,3.1-21.9c1.9-5.1,4-7.2,6.4-7.3c1.1-0.1,2.1,0.3,3,1.2c0.3,0.3,0.5,0.4,0.6,0.4c0.2,0,0.4-0.3,0.6-1
						c0.1-0.6,0.4-0.8,0.7-0.9c0.1,0,0.1,0,0.2,0c0.2,0,0.3,0,0.6,0c0.4,0.1,0.6,0.5,0.7,1.2c0.4,3.5,0.6,5.6,1,10
						c0.1,1.1,0.2,1.9,0.2,2.3c0,0.8-0.3,1.2-0.9,1.2c-0.6,0-1-0.2-1.2-0.5c-0.2-0.4-0.5-1.6-1-3.7c-0.7-2.8-1.3-4.5-1.8-5.5
						c-0.5-1-1.1-1.4-1.7-1.4c-1.6,0.1-2.5,2.2-2.5,7.1c-0.2,13-0.4,25.9-0.6,38.9c0,2.5,0.4,3.6,1.3,3.6c1,0,1.5-1.1,1.6-3.6
						c0.1-6.7,0.2-10.8,0.3-18.7c0-1.3-0.2-2.1-0.6-2.5c-0.4-0.4-0.7-1.2-0.6-2.5c0-1.3,0.1-2.1,0.2-2.4c0.1-0.3,0.4-0.4,0.8-0.4
						c3-0.1,4.5-0.1,7.5-0.1c0.4,0,0.6,0.1,0.7,0.4c0.1,0.3,0.2,0.9,0.2,1.9c0,1,0,1.7-0.1,2.1c-0.1,0.4-0.3,0.6-0.6,0.9
						c-0.4,0.3-0.6,1-0.7,2.1C95.1,72,95,77.4,95,85.3c0,1.2-0.1,1.9-0.2,2.1c-0.1,0.3-0.4,0.4-0.8,0.4c-0.4,0-0.7,0-0.8-0.1
						c-0.2-0.1-0.4-0.3-0.7-0.7C91.7,85.8,90.9,85,90.1,84.6z"/>
					<path style="fill:#5E9BD3;" d="M105.6,63.5c0,7.4,0.1,11.2,0.1,17.5c0,0.7,0,1.2,0.1,1.5c0.1,0.2,0.2,0.5,0.5,0.8
						c0.3,0.3,0.5,0.9,0.5,1.7c0,1.1-0.1,1.8-0.2,2c-0.1,0.2-0.4,0.4-0.7,0.4c-3.1,0-4.6,0-7.7,0c-0.4,0-0.7-0.5-0.7-1.4
						c0-1,0-1.6,0.1-1.9c0-0.3,0.2-0.5,0.4-0.6c0.7-0.4,1-1.3,1-2.7C99,66.6,99,52.6,99,38.5c0-1.4-0.3-2.2-0.8-2.5
						c-0.3-0.2-0.4-0.3-0.5-0.5c-0.1-0.2-0.1-0.6-0.1-1.4c0-1.5,0.3-2.2,0.7-2.2c3.8,0.1,5.7,0.2,9.5,0.6c1.9,0.2,3.7,1.5,5.2,4.1
						c1.6,2.6,2.4,6.3,2.5,11.1c0.1,6.9-1.7,11.7-5.3,13.7c3.3,1.7,5.1,6.3,5.2,12.9c0,3.3,0.1,4.9,0.1,7.8c0,0.6,0.2,1.1,0.4,1.4
						c0.3,0.4,0.5,0.9,0.5,1.6c0,1.1,0,1.7-0.1,1.9c-0.1,0.2-0.3,0.3-0.7,0.3c-2,0-2.9,0-4.9,0c-0.6,0-1.1-0.5-1.5-1.5
						c-0.4-1-0.6-2.3-0.6-4c0-5-0.1-7.9-0.1-13.9c0-2.9-0.7-4.4-2.2-4.5C106.1,63.5,106,63.5,105.6,63.5z M105.5,35.6
						c0,8.1,0.1,13.5,0.1,23.6c0.5,0,0.7,0,1.2,0.1c1.2,0.1,1.7-2.4,1.7-7.3c0-4.7-0.1-7.1-0.1-11.3c0-1.8-0.2-3.1-0.6-3.8
						c-0.4-0.7-0.9-1.1-1.7-1.2C105.8,35.6,105.7,35.6,105.5,35.6z"/>
					<path style="fill:#5E9BD3;" d="M126.8,34.8c1.9,0.4,3.4,1.5,4.7,3.5c1.3,2,2.4,4.9,3.3,8.9c0.9,4,1.3,9.2,1.4,15.7
						c0.1,7.7-0.7,14-2.3,18.6c-1.6,4.6-3.9,6.4-6.8,6.4c-2.8,0-5-1.8-6.7-6.5s-2.6-11.8-2.7-20.7c-0.1-9.1,0.6-16.2,2.2-20.7
						C121.5,35.5,123.8,34.2,126.8,34.8z M128.4,41.6c0-2.5-0.5-3.7-1.6-3.9c-0.4-0.1-0.8,0.1-1.1,0.7c-0.3,0.5-0.5,1.2-0.4,2.1
						c0.1,13.6,0.3,27.3,0.4,40.9c0,1.2,0.2,2.1,0.5,2.7c0.3,0.6,0.7,0.9,1.1,0.9c0.5,0,0.8-0.3,1.1-1c0.3-0.6,0.4-1.4,0.4-2.2
						C128.6,68.4,128.5,55,128.4,41.6z"/>
					<path style="fill:#5E9BD3;" d="M138.3,38c3.2,0.8,4.8,1.2,8,2c0.3,0.1,0.4,0.2,0.5,0.4c0.1,0.2,0.1,0.7,0.1,1.5
						c0,0.8-0.2,1.4-0.5,1.6c-0.3,0.1-0.5,0.3-0.5,0.5c-0.1,0.2-0.1,0.7-0.1,1.3c0.1,11.5,0.2,23,0.3,34.4c0,0.9,0.2,1.6,0.5,2.1
						c0.3,0.5,0.7,0.8,1.2,0.8c0.5,0,0.8-0.3,1.1-0.9c0.3-0.6,0.5-1.2,0.5-2c-0.1-11.2-0.2-22.5-0.3-33.7c0-0.5,0-0.9-0.1-1.1
						c-0.1-0.2-0.2-0.5-0.5-0.9c-0.4-0.6-0.6-1.3-0.6-2.3c0-0.7,0.1-1.1,0.2-1.2c0.1-0.1,0.3-0.1,0.5-0.1c1.6,0.4,2.4,0.6,4,1
						c0.4,0.1,0.7,0.5,0.7,1.1c0,0.5,0,0.7,0,1.2c0,0.5,0,0.9-0.1,1c0,0.1-0.2,0.2-0.4,0.3c-0.6,0.1-0.9,0.6-0.9,1.5
						c0.1,10.8,0.2,21.6,0.3,32.3c0,2.9-0.5,5.1-1.6,6.6c-1.1,1.5-2.6,2.2-4.5,2.2c-2.2,0-3.8-0.7-5-2.4c-1.2-1.7-1.7-4.3-1.8-8
						c-0.1-11.3-0.2-22.5-0.3-33.8c0-0.8-0.3-1.4-0.8-1.9c-0.3-0.2-0.4-0.5-0.5-0.6c-0.1-0.2-0.1-0.5-0.1-1c0-1,0-1.6,0.1-1.9
						S137.9,37.9,138.3,38z"/>
					<path style="fill:#5E9BD3;" d="M158.8,62.2c0.1,8.2,0.1,12.6,0.1,20c0,0.8,0.3,1.3,0.9,1.7c0.5,0.3,0.8,0.8,0.8,1.4
						c0,1.2,0,1.9-0.1,2c0,0.1-0.2,0.2-0.5,0.2c-1.9,0-2.9,0-4.9,0c-0.2,0-0.4-0.1-0.5-0.4c-0.1-0.3-0.1-0.9-0.1-1.9
						c0-0.5,0.2-0.8,0.5-1c0.6-0.4,0.9-0.8,0.9-1.3c-0.1-11.3-0.2-22.7-0.3-34c0-0.8-0.1-1.4-0.2-1.8c-0.1-0.4-0.3-0.8-0.7-1.1
						c-0.3-0.3-0.5-0.6-0.6-0.8c-0.1-0.3-0.2-0.7-0.2-1.4c0-1.2,0.2-1.7,0.7-1.6c2.1,0.5,3.1,0.8,5.1,1.2c2.5,8.1,3.8,13.1,6.3,22
						c0-6.4-0.1-9.6-0.1-15.5c0-0.8-0.3-1.4-0.9-1.9c-0.4-0.3-0.6-0.6-0.7-0.9c-0.1-0.3-0.2-0.8-0.2-1.6c0-0.5,0-0.8,0.1-0.9
						c0.1-0.1,0.2-0.1,0.4-0.1c2,0.4,3.1,0.6,5.1,1c0.3,0.1,0.4,0.6,0.4,1.7c0,0.6,0,1-0.1,1.1c-0.1,0.2-0.2,0.3-0.4,0.4
						c-0.4,0.2-0.7,0.3-0.8,0.5c-0.1,0.2-0.2,0.5-0.2,0.9c0,12.5,0.1,24.4,0.1,37.4c-1.2,0-1.9,0-3.1,0
						C163.2,78.5,161.7,73.2,158.8,62.2z"/>
					<path style="fill:#5E9BD3;" d="M173,82c0-10.5-0.1-21.1-0.1-31.6c0-0.3-0.3-0.6-0.7-0.9c-0.3-0.2-0.5-0.4-0.7-0.7
						c-0.1-0.3-0.2-0.8-0.2-1.7c0-0.6,0.1-1,0.2-1.1c0.2-0.2,0.6-0.2,1.2-0.1c3.6,0.6,5.3,0.8,8.9,1.2c2.5,0.2,4.6,1.9,6.3,5
						c1.6,3.2,2.5,8.3,2.5,15.5c0,6.6-0.8,11.5-2.4,14.8c-1.6,3.3-3.7,4.9-6.3,4.9c-3.9,0-5.8,0-9.7,0c-0.3,0-0.5-0.1-0.6-0.2
						c-0.1-0.2-0.2-0.5-0.2-1.1c0-0.7,0-1.1,0.1-1.3c0-0.2,0.2-0.4,0.5-0.6C172.7,83.7,173,83,173,82z M179.8,49.9
						c0,11.6,0,23.3,0,34.9c0.4,0,0.6,0,1,0c0.7,0,1.2-0.4,1.5-1.1c0.3-0.8,0.5-2.1,0.5-4.1c0-10.1,0-15.6,0-25.7
						c0-1.1-0.2-2-0.6-2.7c-0.4-0.7-1-1.1-1.7-1.2C180.2,49.9,180.1,49.9,179.8,49.9z"/>
				</g>
			</g>
		</g>
		<g>
			<rect x="4.3" y="91.6" style="fill:#5E9BD3;" width="185.6" height="2"/>
		</g>
		<g>
			<rect x="4.3" y="98.2" style="fill:none;" width="185.6" height="14.6"/>
			
				<text transform="matrix(1 0 0 1 53.0117 111.5117)" style="fill:#5E9BD3; font-family:'BernardMT-Condensed'; font-size:16.8583;">SERVICES, INC.</text>
		</g>
	</g>
	<g>
		<path style="fill:#5E9BD3;" d="M211.7,22.8l-0.6-3.2c-0.1-0.2-0.1-0.4-0.2-0.5c-0.1-0.1-0.2-0.1-0.4-0.1h-7.9
			c-0.2,0-0.4,0-0.4,0.1c0,0.1-0.1,0.3-0.1,0.6c0,0.4,0,0.6,0.1,0.7c0,0.1,0.2,0.2,0.4,0.3c0.4,0.2,0.5,0.3,0.6,0.5v13.3
			c1.6-0.3,3.1-0.5,4.6-0.8v-4.7h1c0.2,0,0.3,0,0.4,0.1c0.1,0.1,0.2,0.4,0.3,0.8c0.1,0.5,0.2,0.8,0.3,0.9c0.1,0.1,0.3,0.2,0.6,0.2
			c0.4,0,0.7,0,0.8-0.1c0.1-0.1,0.1-0.2,0.1-0.5v-4.1c0-0.4,0-0.6-0.1-0.6c-0.1-0.1-0.5-0.1-1.1-0.1c-0.1,0-0.2,0.1-0.3,0.2
			c-0.1,0.1-0.1,0.5-0.2,1c-0.1,0.3-0.1,0.5-0.2,0.6c-0.1,0.1-0.3,0.1-0.5,0.1h-0.8v-7h0.8c0.2,0,0.4,0.1,0.6,0.4
			c0.2,0.3,0.4,0.8,0.7,1.5c0.1,0.4,0.3,0.7,0.4,0.8s0.4,0.2,0.9,0.2c0.4,0,0.6-0.1,0.6-0.3C211.7,23.1,211.7,23,211.7,22.8z"/>
		<path style="fill:#4C7EAB;" d="M211.9,34.7c0,0.1,0,0.2,0,0.4l-0.5,2.8c-0.1,0.5-0.1,0.8-0.2,0.9c-0.1,0.1-0.2,0.2-0.5,0.2h-8.2
			c-0.2,0-0.3,0-0.4-0.1c-0.1-0.1-0.1-0.4-0.1-0.8c0-0.3,0.1-0.5,0.4-0.6c0.5-0.2,0.7-0.4,0.7-0.8v-2.1c1.6-0.3,3.1-0.5,4.6-0.8v3.8
			h0.7c0.4,0,0.7-0.1,0.8-0.3c0.2-0.2,0.4-0.9,0.7-2c0.1-0.4,0.3-0.7,0.4-0.9c0.1-0.1,0.4-0.2,0.8-0.2
			C211.7,34.2,211.9,34.4,211.9,34.7z"/>
		<path style="fill:#5E9BD3;" d="M223.2,19.1h-3.4c-0.1,0-0.2,0-0.3,0.1c0,0.1-0.1,0.2-0.1,0.4c0,0.4,0,0.7,0.1,0.8
			c0.1,0.1,0.2,0.3,0.5,0.4c0.4,0.2,0.6,0.4,0.6,0.8v7.1l-4.1-9.6h-3.4c-0.3,0-0.5,0.3-0.5,0.9c0,0.3,0,0.5,0.1,0.7
			c0.1,0.1,0.2,0.2,0.4,0.3c0.2,0.1,0.4,0.3,0.4,0.4c0.1,0.2,0.1,0.4,0.1,0.8v10.9c0.7-0.1,1.3-0.1,1.9-0.2v-5.2l2.2,5.1
			c1.7-0.1,3.3-0.2,4.8-0.2V21.5c0-0.2,0-0.3,0.1-0.4c0.1-0.1,0.3-0.2,0.5-0.3c0.1-0.1,0.2-0.1,0.3-0.2c0-0.1,0.1-0.3,0.1-0.6
			C223.5,19.4,223.4,19.1,223.2,19.1z"/>
		<path style="fill:#4C7EAB;" d="M222.6,32.6V39h-2.1l-2.7-6.2C219.5,32.7,221.1,32.6,222.6,32.6z"/>
		<path style="fill:#4C7EAB;" d="M216.8,37.9c0,0.6,0,0.9,0,1c0,0.1-0.1,0.1-0.4,0.1h-3.3c-0.2,0-0.3-0.1-0.3-0.2
			c0-0.1-0.1-0.4-0.1-0.9c0-0.2,0.1-0.4,0.3-0.5c0.4-0.2,0.6-0.4,0.6-0.6v-3.6c0.7-0.1,1.3-0.1,1.9-0.2v3.5c0,0.4,0.2,0.6,0.6,0.8
			C216.6,37.4,216.8,37.6,216.8,37.9z"/>
		<path style="fill:#5E9BD3;" d="M237,27.4c-0.1-0.1-0.3-0.1-0.5-0.1h-5.2c-0.3,0-0.4,0-0.5,0.1c-0.1,0.1-0.1,0.3-0.1,0.8
			c0,0.4,0.2,0.7,0.5,0.8c0.3,0.1,0.4,0.4,0.4,0.8v2.9c1.4,0.1,3,0.2,4.7,0.3v-3.4c0-0.3,0.1-0.6,0.4-0.7c0.2-0.1,0.3-0.2,0.4-0.3
			c0.1-0.1,0.1-0.3,0.1-0.7C237.1,27.7,237.1,27.5,237,27.4z M232.5,20.9c0.4,0.4,0.8,1.1,1.3,2.1c0.4,0.7,0.6,1.2,0.7,1.3
			c0.1,0.1,0.4,0.2,0.8,0.2c0.4,0,0.7-0.1,0.7-0.4c0-0.1,0-0.4-0.1-0.8l-0.8-3.9c-0.1-0.3-0.2-0.5-0.5-0.6l-0.4,0h-0.1
			c-0.2,0-0.4,0.1-0.5,0.4c-0.1,0.3-0.2,0.4-0.4,0.4c-0.1,0-0.3-0.1-0.5-0.2c-0.6-0.4-1.3-0.6-2.1-0.6c-1.7,0-3.1,1-4.3,2.9
			c-1.2,1.9-1.8,4.4-1.8,7.5c0,1.2,0.1,2.3,0.3,3.4c1.1,0,2.7,0,4.8,0.1V23c0-1.8,0.6-2.7,1.7-2.7C231.7,20.4,232.1,20.6,232.5,20.9
			z"/>
		<path style="fill:#4C7EAB;" d="M236.2,33.1v5c0,0.5,0,0.8-0.1,0.9c-0.1,0.1-0.2,0.2-0.5,0.2c-0.3,0-0.4,0-0.5-0.1
			c-0.1,0-0.3-0.1-0.5-0.3c-0.6-0.5-1.1-0.9-1.6-1c-0.7,1-1.7,1.4-2.7,1.4c-1.7,0-3.1-1-4.1-3c-0.6-1.1-1-2.3-1.3-3.7
			c1.1,0,2.7,0,4.8,0.1v3.6c0,1,0.3,1.5,0.9,1.5c0.7,0,1-0.5,1-1.5v-3.5C233,32.8,234.5,33,236.2,33.1z"/>
		<path style="fill:#5E9BD3;" d="M244.5,19.2c-0.1-0.1-0.2-0.1-0.4-0.1h-5.9c-0.3,0-0.4,0.1-0.4,0.4v0.7c0,0.2,0,0.3,0.1,0.4
			c0,0.1,0.2,0.1,0.4,0.2c0.3,0.1,0.5,0.3,0.5,0.4c0.1,0.2,0.1,0.4,0.1,0.8v11.4c1.8,0.2,3.3,0.4,4.6,0.6V21.7c0-0.6,0.3-0.9,0.8-1
			c0.2,0,0.3-0.1,0.3-0.2c0-0.1,0.1-0.4,0.1-0.8C244.6,19.4,244.6,19.2,244.5,19.2z"/>
		<path style="fill:#4C7EAB;" d="M244.6,38v0.5c0,0.3,0,0.4-0.1,0.4c0,0-0.2,0-0.4,0h-6c-0.2,0-0.3-0.1-0.3-0.3c0-0.6,0-1,0.1-1.1
			c0-0.1,0.2-0.2,0.4-0.3c0.4-0.1,0.7-0.4,0.7-0.7v-3.3c1.8,0.2,3.3,0.4,4.6,0.6v2.5c0,0.3,0.2,0.6,0.6,0.7c0.2,0.1,0.4,0.2,0.4,0.3
			C244.5,37.6,244.6,37.8,244.6,38z"/>
		<path style="fill:#5E9BD3;" d="M255.8,19.1h-3.4c-0.1,0-0.2,0-0.3,0.1c0,0.1-0.1,0.2-0.1,0.4c0,0.4,0,0.7,0.1,0.8
			c0.1,0.1,0.2,0.3,0.5,0.4c0.4,0.2,0.6,0.4,0.6,0.8v7.1l-4.1-9.6h-3.4c-0.3,0-0.5,0.3-0.5,0.9c0,0.3,0,0.5,0.1,0.7
			c0.1,0.1,0.2,0.2,0.4,0.3c0.2,0.1,0.4,0.3,0.4,0.4c0.1,0.2,0.1,0.4,0.1,0.8v12.3c0.7,0.1,1.3,0.3,1.9,0.4v-7.1l3.3,7.8
			c1,0.2,2.2,0.3,3.6,0.4V21.5c0-0.2,0-0.3,0.1-0.4c0.1-0.1,0.3-0.2,0.5-0.3c0.1-0.1,0.2-0.1,0.3-0.2c0-0.1,0.1-0.3,0.1-0.6
			C256.1,19.4,256,19.1,255.8,19.1z"/>
		<path style="fill:#4C7EAB;" d="M255.1,35.9V39h-2.1l-1.5-3.5C252.6,35.7,253.7,35.8,255.1,35.9z"/>
		<path style="fill:#4C7EAB;" d="M249.4,37.9c0,0.6,0,0.9,0,1c0,0.1-0.1,0.1-0.4,0.1h-3.3c-0.2,0-0.3-0.1-0.3-0.2
			c0-0.1-0.1-0.4-0.1-0.9c0-0.2,0.1-0.4,0.3-0.5c0.4-0.2,0.6-0.4,0.6-0.6v-2.3c0.7,0.1,1.3,0.3,1.9,0.4v1.6c0,0.4,0.2,0.6,0.6,0.8
			C249.2,37.4,249.4,37.6,249.4,37.9z"/>
		<path style="fill:#5E9BD3;" d="M265.8,34.2c-0.4,0-0.6,0.1-0.8,0.2c-0.1,0.1-0.3,0.4-0.4,0.9c-0.1,0.2-0.1,0.4-0.2,0.6
			c0.7,0,1.4-0.1,2-0.2l0.1-0.6c0-0.2,0-0.3,0-0.4C266.6,34.4,266.3,34.2,265.8,34.2z M265.6,30.9c0.1-0.1,0.1-0.2,0.1-0.5v-4.1
			c0-0.4,0-0.6-0.1-0.6c-0.1-0.1-0.5-0.1-1.1-0.1c-0.1,0-0.2,0.1-0.3,0.2c-0.1,0.1-0.1,0.5-0.2,1c-0.1,0.3-0.1,0.5-0.2,0.6
			c-0.1,0.1-0.3,0.1-0.5,0.1h-0.8v-7h0.8c0.2,0,0.4,0.1,0.6,0.4c0.2,0.3,0.4,0.8,0.7,1.5c0.1,0.4,0.3,0.7,0.4,0.8
			c0.1,0.1,0.4,0.2,0.9,0.2c0.4,0,0.6-0.1,0.6-0.3c0-0.1,0-0.2,0-0.3l-0.6-3.2c0-0.2-0.1-0.4-0.2-0.5c-0.1-0.1-0.2-0.1-0.4-0.1h-7.9
			c-0.2,0-0.4,0-0.4,0.1c-0.1,0.1-0.1,0.3-0.1,0.6c0,0.4,0,0.6,0.1,0.7c0,0.1,0.2,0.2,0.4,0.3c0.4,0.2,0.5,0.3,0.6,0.5V36
			c1.6,0,3.1,0,4.6-0.1v-6.9h1c0.2,0,0.3,0,0.4,0.1c0.1,0.1,0.2,0.4,0.3,0.8c0.1,0.5,0.2,0.8,0.3,0.9c0.1,0.1,0.3,0.2,0.6,0.2
			C265.3,31.1,265.5,31,265.6,30.9z"/>
		<path style="fill:#4C7EAB;" d="M266.4,35.7l-0.4,2.2c-0.1,0.5-0.1,0.8-0.2,0.9c-0.1,0.1-0.2,0.2-0.5,0.2h-8.2
			c-0.2,0-0.3,0-0.4-0.1c-0.1-0.1-0.1-0.4-0.1-0.8c0-0.3,0.1-0.5,0.4-0.6c0.5-0.2,0.7-0.4,0.7-0.8V36c1.6,0,3.1,0,4.6-0.1v1.6h0.7
			c0.4,0,0.7-0.1,0.8-0.3c0.1-0.2,0.3-0.6,0.5-1.4C265.1,35.8,265.8,35.7,266.4,35.7z"/>
		<path style="fill:#5E9BD3;" d="M276.9,22.8l-0.6-3.2c-0.1-0.2-0.1-0.4-0.2-0.5c-0.1-0.1-0.2-0.1-0.4-0.1h-7.9
			c-0.2,0-0.4,0-0.4,0.1c0,0.1-0.1,0.3-0.1,0.6c0,0.4,0,0.6,0.1,0.7c0,0.1,0.2,0.2,0.4,0.3c0.4,0.2,0.5,0.3,0.6,0.5v14.2
			c1.7-0.2,3.2-0.5,4.6-0.7v-5.7h1c0.2,0,0.3,0,0.4,0.1c0.1,0.1,0.2,0.4,0.3,0.8c0.1,0.5,0.2,0.8,0.3,0.9c0.1,0.1,0.3,0.2,0.6,0.2
			c0.4,0,0.7,0,0.8-0.1c0.1-0.1,0.1-0.2,0.1-0.5v-4.1c0-0.4,0-0.6-0.1-0.6c-0.1-0.1-0.5-0.1-1.1-0.1c-0.1,0-0.2,0.1-0.3,0.2
			c-0.1,0.1-0.1,0.5-0.2,1c-0.1,0.3-0.1,0.5-0.2,0.6c-0.1,0.1-0.3,0.1-0.5,0.1h-0.8v-7h0.8c0.2,0,0.4,0.1,0.6,0.4
			c0.2,0.3,0.4,0.8,0.7,1.5c0.1,0.4,0.3,0.7,0.4,0.8c0.1,0.1,0.4,0.2,0.9,0.2c0.4,0,0.6-0.1,0.6-0.3C276.9,23.1,276.9,23,276.9,22.8
			z"/>
		<path style="fill:#4C7EAB;" d="M277.1,34.7c0,0.1,0,0.2,0,0.4l-0.5,2.8c-0.1,0.5-0.1,0.8-0.2,0.9c-0.1,0.1-0.2,0.2-0.5,0.2h-8.2
			c-0.2,0-0.3,0-0.4-0.1c-0.1-0.1-0.1-0.4-0.1-0.8c0-0.3,0.1-0.5,0.4-0.6c0.5-0.2,0.7-0.4,0.7-0.8v-1.1c1.7-0.2,3.2-0.5,4.6-0.7v2.8
			h0.7c0.4,0,0.7-0.1,0.8-0.3c0.2-0.2,0.4-0.9,0.7-2c0.1-0.4,0.3-0.7,0.4-0.9c0.1-0.1,0.4-0.2,0.8-0.2
			C276.8,34.2,277.1,34.4,277.1,34.7z"/>
		<path style="fill:#5E9BD3;" d="M290.4,24.7c0-1.7-0.5-3.1-1.6-4.1c-1.1-1-2.3-1.5-3.6-1.5h-6.8c-0.3,0-0.5,0.3-0.5,1
			c0,0.3,0,0.5,0.1,0.6c0,0.1,0.2,0.1,0.4,0.2c0.4,0.1,0.6,0.4,0.6,1v11.7c1.9-0.5,3.2-0.9,4.6-1.3v-2h0.6c0.9,0,1.4,0.5,1.5,1.4
			c1-0.3,2.1-0.6,3.5-0.9c-0.6-0.6-1.3-1-2.4-1.2C289.1,28.8,290.4,27.2,290.4,24.7z M285.5,26.4c0,1.6-0.4,2.5-1.2,2.5h-0.8v-8.3
			h0.4c0.6,0,1,0.1,1.2,0.4c0.3,0.3,0.4,0.8,0.4,1.5V26.4z"/>
		<path style="fill:#4C7EAB;" d="M290.7,38c0,0.5,0,0.8-0.1,0.8c-0.1,0.1-0.2,0.1-0.5,0.1h-3.3c-0.4,0-0.7-0.2-1-0.7
			c-0.3-0.4-0.4-1-0.4-1.7v-5c0,0,0-0.1,0-0.1c1-0.3,2.1-0.6,3.5-0.9c0.7,0.7,1,1.8,1,3.1v2.9c0,0.2,0.1,0.4,0.3,0.6
			C290.5,37.5,290.7,37.7,290.7,38z"/>
		<path style="fill:#4C7EAB;" d="M284.1,37.9c0,0.5,0,0.8-0.1,0.9c-0.1,0.1-0.2,0.2-0.5,0.2h-5.2c-0.3,0-0.4-0.2-0.4-0.6
			c0-0.4,0-0.7,0-0.8c0-0.1,0.1-0.2,0.2-0.3c0.4-0.2,0.7-0.5,0.7-1.1v-2.8c1.9-0.5,3.2-0.9,4.6-1.3v4.2c0,0.3,0,0.5,0.1,0.6
			c0,0.1,0.1,0.2,0.3,0.3C284,37.4,284.1,37.6,284.1,37.9z"/>
		<path style="fill:#5E9BD3;" d="M298.1,19.2c-0.1-0.1-0.2-0.1-0.4-0.1h-5.9c-0.3,0-0.4,0.1-0.4,0.4v0.7c0,0.2,0,0.3,0.1,0.4
			c0,0.1,0.2,0.1,0.4,0.2c0.3,0.1,0.5,0.3,0.5,0.4c0.1,0.2,0.1,0.4,0.1,0.8v8c1.5-0.3,3-0.6,4.6-0.8v-7.6c0-0.6,0.3-0.9,0.8-1
			c0.2,0,0.3-0.1,0.3-0.2c0-0.1,0.1-0.4,0.1-0.8C298.2,19.4,298.2,19.2,298.1,19.2z"/>
		<path style="fill:#4C7EAB;" d="M298.2,38v0.5c0,0.3,0,0.4-0.1,0.4c0,0-0.2,0-0.4,0h-6c-0.2,0-0.3-0.1-0.3-0.3c0-0.6,0-1,0.1-1.1
			c0-0.1,0.2-0.2,0.4-0.3c0.4-0.1,0.7-0.4,0.7-0.7V30c1.5-0.3,3-0.6,4.6-0.8v7.2c0,0.3,0.2,0.6,0.6,0.7c0.2,0.1,0.4,0.2,0.4,0.3
			C298.1,37.6,298.2,37.8,298.2,38z"/>
		<path style="fill:#5E9BD3;" d="M309.4,19.1H306c-0.1,0-0.2,0-0.3,0.1c0,0.1-0.1,0.2-0.1,0.4c0,0.4,0,0.7,0.1,0.8
			c0.1,0.1,0.2,0.3,0.5,0.4c0.4,0.2,0.6,0.4,0.6,0.8v7.1c0.6,0,1.2,0.1,1.9,0.1v-7.3c0-0.2,0-0.3,0.1-0.4c0.1-0.1,0.3-0.2,0.5-0.3
			c0.1-0.1,0.2-0.1,0.3-0.2c0-0.1,0.1-0.3,0.1-0.6C309.7,19.4,309.6,19.1,309.4,19.1z M299.3,19.1c-0.3,0-0.5,0.3-0.5,0.9
			c0,0.3,0,0.5,0.1,0.7c0.1,0.1,0.2,0.2,0.4,0.3c0.2,0.1,0.4,0.3,0.4,0.4c0.1,0.2,0.1,0.4,0.1,0.8v6.7c0.6-0.1,1.3-0.1,1.9-0.2v-1
			l0.4,1c0.8,0,1.6-0.1,2.4-0.1c0.7,0,1.4,0,2.1,0l-4.1-9.6H299.3z"/>
		<path style="fill:#4C7EAB;" d="M308.7,28.8V39h-2.1l-4.4-10.3c0.8,0,1.6-0.1,2.4-0.1c0.7,0,1.4,0,2.1,0h0l0,0v0
			C307.4,28.7,308.1,28.8,308.7,28.8z"/>
		<path style="fill:#4C7EAB;" d="M303,37.9c0,0.6,0,0.9,0,1c0,0.1-0.1,0.1-0.4,0.1h-3.3c-0.2,0-0.3-0.1-0.3-0.2
			c0-0.1-0.1-0.4-0.1-0.9c0-0.2,0.1-0.4,0.3-0.5c0.4-0.2,0.6-0.4,0.6-0.6v-7.8c0.6-0.1,1.3-0.1,1.9-0.2v7.7c0,0.4,0.2,0.6,0.6,0.8
			C302.8,37.4,303,37.6,303,37.9z"/>
		<path style="fill:#5E9BD3;" d="M323.2,27.4c-0.1-0.1-0.3-0.1-0.5-0.1h-5.2c-0.3,0-0.4,0-0.5,0.1c-0.1,0.1-0.1,0.3-0.1,0.8
			c0,0.4,0.2,0.7,0.5,0.8c0.3,0.1,0.4,0.4,0.4,0.8v0.6c1.5,0.4,3.1,0.9,4.7,1.5v-2.3c0-0.3,0.1-0.6,0.4-0.7c0.2-0.1,0.3-0.2,0.4-0.3
			c0.1-0.1,0.1-0.3,0.1-0.7C323.3,27.7,323.3,27.5,323.2,27.4z M318.7,20.9c0.4,0.4,0.8,1.1,1.3,2.1c0.4,0.7,0.6,1.2,0.7,1.3
			c0.1,0.1,0.4,0.2,0.8,0.2c0.4,0,0.7-0.1,0.7-0.4c0-0.1,0-0.4-0.1-0.8l-0.8-3.9c-0.1-0.3-0.2-0.5-0.5-0.6l-0.4,0h-0.1
			c-0.2,0-0.4,0.1-0.5,0.4c-0.1,0.3-0.2,0.4-0.4,0.4c-0.1,0-0.3-0.1-0.5-0.2c-0.6-0.4-1.3-0.6-2.1-0.6c-1.7,0-3.1,1-4.3,2.9
			c-1.2,1.9-1.8,4.3-1.8,7.4c1.6,0.2,3.3,0.5,5.1,0.9V23c0-1.8,0.6-2.7,1.7-2.7C317.9,20.4,318.3,20.6,318.7,20.9z"/>
		<path style="fill:#4C7EAB;" d="M322.4,32v6.1c0,0.5,0,0.8-0.1,0.9c-0.1,0.1-0.2,0.2-0.5,0.2c-0.3,0-0.4,0-0.5-0.1
			c-0.1,0-0.3-0.1-0.5-0.3c-0.5-0.5-1.1-0.9-1.6-1c-0.7,1-1.6,1.4-2.7,1.4c-1.7,0-3.1-1-4.2-3c-1.1-2-1.6-4.3-1.6-7.1
			c0,0,0-0.1,0-0.1c1.6,0.2,3.3,0.5,5.1,0.9v6.3c0,1,0.3,1.5,0.9,1.5c0.7,0,1-0.5,1-1.5v-5.8C319.2,30.8,320.8,31.3,322.4,32z"/>
		<line style="fill:none;stroke:#5E9BD3;stroke-miterlimit:10;" x1="306.8" y1="28.7" x2="306.8" y2="28.7"/>
	</g>
	<g>
		<path style="fill:#5E9BD3;" d="M211.7,54.1l-0.3-4c0-0.5-0.1-0.8-0.2-0.9c-0.1-0.1-0.2-0.2-0.3-0.2h-0.6c-0.1,0-0.3,0.1-0.4,0.3
			c-0.2,0.2-0.3,0.3-0.4,0.3c-0.1,0-0.2-0.1-0.4-0.2c-0.4-0.3-0.9-0.5-1.5-0.5c-1,0-1.8,0.4-2.6,1.1c-0.7,0.8-1.3,1.8-1.8,3.2
			c-0.5,1.4-0.7,3.3-0.7,5.6c0,2.5,0.3,4.5,0.8,6.1c1.3-0.5,2.7-1,4.3-1.4v-11c0-1.3,0.3-1.9,0.8-1.9c0.6,0,1.1,0.9,1.4,2.7
			c0.1,0.7,0.3,1.2,0.4,1.3c0.1,0.2,0.4,0.3,0.8,0.3c0.3,0,0.5-0.1,0.6-0.2c0.1-0.1,0.1-0.3,0.1-0.6
			C211.7,54.2,211.7,54.1,211.7,54.1z"/>
		<path style="fill:#4C7EAB;" d="M211.7,65.4c0,1.2-0.4,2.1-1.1,2.9c-0.7,0.8-1.6,1.2-2.6,1.2c-1,0-1.9-0.3-2.7-1
			c-0.8-0.7-1.4-1.8-2-3.4c0,0,0,0,0,0c1.3-0.5,2.7-1,4.3-1.4v2.8c0,0.9,0.3,1.4,0.8,1.4c0.7,0,1.1-0.8,1.2-2.3
			c0-0.4,0.1-0.8,0.3-0.9c0.1-0.2,0.4-0.3,0.9-0.3c0.3,0,0.6,0.1,0.7,0.2C211.6,64.8,211.7,65,211.7,65.4z"/>
		<path style="fill:#5E9BD3;" d="M224.1,53.7c-0.6-1.5-1.3-2.6-2.2-3.5c-0.9-0.8-1.9-1.2-3.1-1.2c-1.9,0-3.4,0.9-4.5,2.8
			c-1.1,1.9-1.7,4.4-1.7,7.4c0,1.1,0.1,2.1,0.2,3c1.6-0.3,3.2-0.6,4.9-0.9v-9.7c0-0.4,0.1-0.7,0.3-0.9c0.2-0.3,0.4-0.4,0.7-0.4
			c0.7,0,1,0.5,1,1.5v9.2c1.8-0.2,3.5-0.3,5.1-0.4c0-0.4,0-0.9,0-1.3C224.9,57.1,224.7,55.2,224.1,53.7z"/>
		<path style="fill:#4C7EAB;" d="M224.9,60.8c-0.1,2.2-0.7,4.2-1.6,5.8c-1.1,1.9-2.6,2.9-4.6,2.9c-1.9,0-3.4-0.9-4.4-2.8
			c-0.7-1.2-1.2-2.6-1.4-4.3c1.6-0.3,3.2-0.6,4.9-0.9v5.1c0,0.5,0.1,0.9,0.3,1.1c0.2,0.3,0.4,0.4,0.7,0.4c0.3,0,0.5-0.1,0.7-0.4
			c0.2-0.3,0.3-0.6,0.3-1v-5.5C221.6,61,223.3,60.8,224.9,60.8z"/>
		<path style="fill:#5E9BD3;" d="M236.6,49.4h-3.4c-0.1,0-0.2,0-0.3,0.1c-0.1,0.1-0.1,0.2-0.1,0.4c0,0.4,0,0.7,0.1,0.8
			c0.1,0.1,0.2,0.3,0.5,0.4c0.4,0.2,0.6,0.4,0.6,0.8V59l-4.1-9.6h-3.4c-0.3,0-0.5,0.3-0.5,0.9c0,0.3,0,0.5,0.1,0.7
			c0.1,0.1,0.2,0.2,0.4,0.3c0.2,0.1,0.4,0.3,0.4,0.4c0.1,0.2,0.1,0.4,0.1,0.8v8.3c0.7,0,1.3,0,1.9,0V58l1.2,2.7c2.1,0,4,0.2,5.8,0.3
			v-9.2c0-0.2,0-0.3,0.1-0.4c0.1-0.1,0.3-0.2,0.5-0.3c0.1-0.1,0.2-0.1,0.3-0.2c0-0.1,0.1-0.3,0.1-0.6
			C236.9,49.7,236.8,49.4,236.6,49.4z"/>
		<path style="fill:#4C7EAB;" d="M236,61v8.3h-2.1l-3.7-8.5C232.3,60.7,234.2,60.9,236,61z"/>
		<path style="fill:#4C7EAB;" d="M230.2,68.2c0,0.6,0,0.9,0,1c0,0.1-0.1,0.1-0.4,0.1h-3.3c-0.2,0-0.3-0.1-0.3-0.2
			c0-0.1-0.1-0.4-0.1-0.9c0-0.2,0.1-0.4,0.3-0.5c0.4-0.2,0.6-0.4,0.6-0.6v-6.3c0.7,0,1.3,0,1.9,0v6c0,0.4,0.2,0.6,0.6,0.8
			C230,67.6,230.2,67.9,230.2,68.2z"/>
		<path style="fill:#5E9BD3;" d="M245.6,60.9c-0.4-1.1-1.4-2.8-2.8-5.2c-1.2-2.1-1.9-3.5-1.9-4.2c0-0.6,0.2-0.9,0.6-0.9
			c0.6,0,1.2,0.8,2,2.5c0.3,0.8,0.6,1.2,0.7,1.3c0.1,0.1,0.4,0.2,0.8,0.2c0.4,0,0.6,0,0.7-0.1s0.1-0.2,0.1-0.3c0,0,0-0.2-0.1-0.4
			l-0.7-4.2c0-0.3-0.1-0.4-0.2-0.5c-0.4-0.1-0.6-0.1-0.7-0.1c-0.2,0-0.4,0.1-0.6,0.3c-0.2,0.3-0.4,0.5-0.4,0.6
			c-0.9-0.6-1.7-0.9-2.3-0.9c-0.9,0-1.7,0.4-2.4,1.3c-0.6,0.9-1,2-1,3.5c0,1.3,0.3,2.6,0.8,3.8c0.4,1,1.1,2.2,2,3.8
			c2.3,0.3,4.1,0.5,5.6,0.8C245.9,61.8,245.8,61.3,245.6,60.9z"/>
		<path style="fill:#4C7EAB;" d="M246.3,64.6c0,1.6-0.4,2.8-1.1,3.6c-0.7,0.8-1.6,1.3-2.5,1.3c-0.6,0-1.2-0.2-1.7-0.5
			c-0.2-0.1-0.4-0.2-0.5-0.2c-0.1,0-0.2,0.1-0.3,0.2c-0.1,0.3-0.5,0.5-1,0.5c-0.2,0-0.3,0-0.4-0.1c-0.1-0.1-0.1-0.2-0.2-0.5
			l-0.6-4.1c-0.1-0.5-0.1-0.8-0.1-0.8c0-0.2,0.2-0.4,0.7-0.4c0.6,0,0.9,0.1,1,0.2c0.1,0.2,0.3,0.5,0.5,1.1c0.7,2,1.4,3,2.2,3
			c0.3,0,0.5-0.1,0.7-0.3c0.2-0.2,0.3-0.4,0.3-0.7c0-0.5-0.2-1.1-0.6-1.8c-0.4-0.7-0.8-1.5-1.4-2.4c-0.3-0.4-0.5-0.8-0.8-1.2
			c2.3,0.3,4.1,0.5,5.6,0.8C246.2,63,246.3,63.7,246.3,64.6z"/>
		<path style="fill:#5E9BD3;" d="M258,52.7l-0.2-2.5c0-0.4-0.1-0.6-0.1-0.7c-0.1-0.1-0.2-0.1-0.5-0.1h-9c-0.4,0-0.6,0.1-0.7,0.2
			c-0.1,0.1-0.2,0.3-0.2,0.7l-0.1,2.9c0,0.1,0,0.3,0,0.4c0,0.3,0.1,0.4,0.2,0.5c0.1,0.1,0.3,0.1,0.7,0.1c0.4,0,0.6-0.1,0.7-0.2
			c0.1-0.1,0.2-0.4,0.3-0.9c0.1-1.1,0.2-1.7,0.4-2c0.1-0.2,0.3-0.4,0.4-0.4h0.6v12.5c1.5,0.4,2.7,0.6,4.6,0.7V50.7h0.4
			c0.2,0,0.4,0.2,0.6,0.7c0.2,0.5,0.3,1,0.4,1.8c0.1,0.4,0.2,0.7,0.3,0.8s0.4,0.1,0.8,0.1c0.3,0,0.5-0.1,0.6-0.2
			c0.1-0.1,0.1-0.3,0.1-0.6C258,53.1,258,52.9,258,52.7z"/>
		<path style="fill:#4C7EAB;" d="M255.9,68.4c0,0.4,0,0.7-0.1,0.7c-0.1,0.1-0.2,0.1-0.5,0.1h-5.4c-0.2,0-0.4,0-0.4-0.1
			c-0.1-0.1-0.1-0.3-0.1-0.7c0-0.5,0.1-0.7,0.4-0.8c0.2-0.1,0.4-0.2,0.5-0.3c0.1-0.1,0.1-0.3,0.1-0.5v-3.6c1.5,0.4,2.7,0.6,4.6,0.7
			v2.6c0,0.5,0.2,0.8,0.6,0.9c0.2,0.1,0.3,0.2,0.3,0.3C255.9,67.9,255.9,68.1,255.9,68.4z"/>
		<path style="fill:#5E9BD3;" d="M271.4,55c0-1.7-0.5-3.1-1.6-4.1c-1.1-1-2.3-1.5-3.6-1.5h-6.8c-0.3,0-0.5,0.3-0.5,1
			c0,0.3,0,0.5,0.1,0.6c0,0.1,0.2,0.1,0.4,0.2c0.4,0.1,0.6,0.4,0.6,1v11.6c1.7-0.2,3.1-0.6,4.6-1.1v-2.1h0.6c1,0,1.5,0.5,1.5,1.5v0
			c1-0.3,2.1-0.7,3.4-1.1c-0.6-0.5-1.3-0.9-2.3-1.1C270.2,59,271.4,57.4,271.4,55z M266.5,56.6c0,1.6-0.4,2.5-1.2,2.5h-0.8v-8.3h0.4
			c0.6,0,1,0.1,1.2,0.4c0.3,0.3,0.4,0.8,0.4,1.5V56.6z"/>
		<path style="fill:#4C7EAB;" d="M271.7,68.3c0,0.5,0,0.8-0.1,0.8c-0.1,0.1-0.2,0.1-0.5,0.1h-3.3c-0.4,0-0.7-0.2-1-0.7
			c-0.3-0.4-0.4-1-0.4-1.7v-5c1-0.3,2.1-0.7,3.4-1.1c0.8,0.7,1.1,1.8,1.1,3.2V67c0,0.2,0.1,0.4,0.3,0.6
			C271.6,67.7,271.7,68,271.7,68.3z"/>
		<path style="fill:#4C7EAB;" d="M265.2,68.2c0,0.5,0,0.8-0.1,0.9c-0.1,0.1-0.2,0.2-0.5,0.2h-5.2c-0.3,0-0.4-0.2-0.4-0.6
			c0-0.4,0-0.7,0-0.8c0-0.1,0.1-0.2,0.2-0.3c0.4-0.2,0.7-0.5,0.7-1.1v-2.8c1.7-0.2,3.1-0.6,4.6-1.1v4c0,0.3,0,0.5,0.1,0.6
			c0,0.1,0.1,0.2,0.3,0.3C265.1,67.6,265.2,67.9,265.2,68.2z"/>
		<path style="fill:#5E9BD3;" d="M282.5,49.4h-2.7c-0.1,0-0.3,0-0.3,0.1c-0.1,0.1-0.1,0.3-0.1,0.6c0,0.4,0.1,0.8,0.4,1
			c0.2,0.1,0.3,0.3,0.3,0.4c0,0.1,0.1,0.3,0.1,0.5v6.8c0.6-0.1,1.2-0.2,1.8-0.3v-6.5c0-0.4,0.2-0.7,0.6-0.8c0.2-0.1,0.2-0.1,0.3-0.2
			c0-0.1,0-0.2,0-0.5v-0.6C282.9,49.5,282.7,49.4,282.5,49.4z M278.3,49.4H273c-0.3,0-0.4,0.1-0.5,0.2c-0.1,0.1-0.1,0.4-0.1,0.9
			c0,0.2,0,0.4,0.1,0.4c0,0.1,0.1,0.1,0.3,0.2c0.4,0.2,0.5,0.4,0.5,0.8V60c1.3-0.3,2.8-0.6,4.6-0.9v-7.2c0-0.3,0-0.5,0.1-0.6
			c0.1-0.1,0.2-0.2,0.4-0.3c0.2-0.1,0.4-0.4,0.4-0.8c0-0.4,0-0.6-0.1-0.7C278.6,49.4,278.5,49.4,278.3,49.4z"/>
		<path style="fill:#4C7EAB;" d="M282,58.4v6.9c0,1.3-0.4,2.3-1.1,3c-0.7,0.7-1.7,1.1-3.1,1.1c-1.5,0-2.6-0.4-3.3-1.2
			c-0.8-0.8-1.2-1.9-1.2-3.4V60c1.3-0.3,2.8-0.6,4.6-0.9v6.6c0,0.4,0.1,0.7,0.3,0.9c0.2,0.2,0.5,0.4,0.8,0.4c0.3,0,0.6-0.1,0.8-0.4
			c0.2-0.3,0.3-0.6,0.3-0.9v-7C280.8,58.6,281.4,58.5,282,58.4z"/>
		<path style="fill:#5E9BD3;" d="M293.1,54.1l-0.3-4c0-0.5-0.1-0.8-0.2-0.9c-0.1-0.1-0.2-0.2-0.3-0.2h-0.6c-0.1,0-0.3,0.1-0.4,0.3
			c-0.2,0.2-0.3,0.3-0.4,0.3c-0.1,0-0.2-0.1-0.4-0.2c-0.4-0.3-0.9-0.5-1.5-0.5c-1,0-1.8,0.4-2.6,1.1c-0.7,0.8-1.3,1.8-1.8,3.2
			c-0.4,1.2-0.6,2.8-0.7,4.7c1.8-0.3,3.4-0.5,5.1-0.6v-4.8c0-1.3,0.3-1.9,0.8-1.9c0.6,0,1.1,0.9,1.4,2.7c0.1,0.7,0.3,1.2,0.4,1.3
			c0.1,0.2,0.4,0.3,0.7,0.3c0.3,0,0.5-0.1,0.6-0.2c0.1-0.1,0.1-0.3,0.1-0.6C293.2,54.2,293.2,54.1,293.1,54.1z"/>
		<path style="fill:#4C7EAB;" d="M293.1,65.4c0,1.2-0.4,2.1-1.1,2.9c-0.7,0.8-1.6,1.2-2.6,1.2c-1,0-1.9-0.3-2.7-1
			c-0.8-0.7-1.4-1.8-2-3.4c-0.6-1.6-0.8-3.6-0.8-6.1c0-0.3,0-0.6,0-0.9c1.8-0.3,3.4-0.5,5.1-0.6v9c0,0.9,0.3,1.4,0.8,1.4
			c0.7,0,1.1-0.8,1.2-2.3c0-0.4,0.1-0.8,0.3-0.9c0.1-0.2,0.5-0.3,0.9-0.3c0.3,0,0.6,0.1,0.7,0.2S293.1,65,293.1,65.4z"/>
		<path style="fill:#5E9BD3;" d="M304.8,52.7l-0.2-2.5c0-0.4-0.1-0.6-0.1-0.7c-0.1-0.1-0.2-0.1-0.5-0.1h-9c-0.4,0-0.6,0.1-0.7,0.2
			c-0.1,0.1-0.2,0.3-0.2,0.7l-0.1,2.9c0,0.1,0,0.3,0,0.4c0,0.3,0.1,0.4,0.2,0.5c0.1,0.1,0.3,0.1,0.7,0.1c0.4,0,0.6-0.1,0.7-0.2
			c0.1-0.1,0.2-0.4,0.3-0.9c0.1-1.1,0.2-1.7,0.4-2c0.1-0.2,0.3-0.4,0.4-0.4h0.6v6.9c1.6,0.1,3.1,0.4,4.6,0.6v-7.5h0.4
			c0.2,0,0.4,0.2,0.6,0.7c0.2,0.5,0.3,1,0.4,1.8c0.1,0.4,0.2,0.7,0.3,0.8s0.4,0.1,0.8,0.1c0.3,0,0.5-0.1,0.6-0.2
			c0.1-0.1,0.1-0.3,0.1-0.6C304.8,53.1,304.8,52.9,304.8,52.7z"/>
		<path style="fill:#4C7EAB;" d="M302.7,68.4c0,0.4,0,0.7-0.1,0.7c-0.1,0.1-0.2,0.1-0.5,0.1h-5.4c-0.2,0-0.4,0-0.4-0.1
			s-0.1-0.3-0.1-0.7c0-0.5,0.1-0.7,0.4-0.8c0.3-0.1,0.4-0.2,0.5-0.3c0.1-0.1,0.1-0.3,0.1-0.5v-9.1c1.6,0.1,3.1,0.4,4.6,0.6v8.3
			c0,0.5,0.2,0.8,0.6,0.9c0.2,0.1,0.3,0.2,0.3,0.3C302.6,67.9,302.7,68.1,302.7,68.4z"/>
		<path style="fill:#5E9BD3;" d="M312.3,49.5c-0.1-0.1-0.2-0.1-0.4-0.1H306c-0.3,0-0.4,0.1-0.4,0.4v0.7c0,0.2,0,0.3,0.1,0.4
			c0,0.1,0.2,0.1,0.4,0.2c0.3,0.1,0.5,0.3,0.5,0.4c0.1,0.2,0.1,0.4,0.1,0.8v7.1c1.8,0.4,3.3,0.9,4.6,1.3V52c0-0.6,0.3-0.9,0.8-1
			c0.2,0,0.3-0.1,0.3-0.2c0-0.1,0.1-0.4,0.1-0.8C312.4,49.7,312.4,49.5,312.3,49.5z"/>
		<path style="fill:#4C7EAB;" d="M312.4,68.3v0.5c0,0.3,0,0.4-0.1,0.4c-0.1,0-0.2,0-0.4,0h-6c-0.2,0-0.3-0.1-0.3-0.3
			c0-0.6,0-1,0.1-1.1c0-0.1,0.2-0.2,0.4-0.3c0.4-0.1,0.7-0.4,0.7-0.7v-7.5c1.8,0.4,3.3,0.9,4.6,1.3v6.1c0,0.3,0.2,0.6,0.6,0.7
			c0.2,0.1,0.4,0.2,0.4,0.3C312.3,67.9,312.4,68.1,312.4,68.3z"/>
		<path style="fill:#5E9BD3;" d="M324.7,53.7c-0.6-1.5-1.3-2.6-2.2-3.5c-0.9-0.8-1.9-1.2-3.1-1.2c-1.9,0-3.4,0.9-4.5,2.8
			c-1.1,1.9-1.7,4.4-1.7,7.4c0,0.7,0,1.3,0.1,2c2.2,0.7,3.7,1.3,5,1.9V51.7c0-0.4,0.1-0.7,0.3-0.9c0.2-0.3,0.4-0.4,0.7-0.4
			c0.7,0,1,0.5,1,1.5v12c1.2,0.5,2.5,0.9,4.2,1.2c0.6-1.6,1-3.5,1-5.7C325.6,57.1,325.3,55.2,324.7,53.7z"/>
		<path style="fill:#4C7EAB;" d="M324.6,65.2c-0.2,0.5-0.4,1-0.7,1.4c-1.1,1.9-2.6,2.9-4.6,2.9c-1.9,0-3.4-0.9-4.4-2.8
			c-0.8-1.5-1.3-3.2-1.5-5.3c2.2,0.7,3.7,1.3,5,1.9v3.4c0,0.5,0.1,0.9,0.3,1.1c0.2,0.3,0.4,0.4,0.7,0.4c0.3,0,0.5-0.1,0.7-0.4
			c0.2-0.3,0.3-0.6,0.3-1V64C321.6,64.5,322.9,64.9,324.6,65.2z"/>
		<path style="fill:#5E9BD3;" d="M337.3,49.4h-3.4c-0.1,0-0.2,0-0.3,0.1c-0.1,0.1-0.1,0.2-0.1,0.4c0,0.4,0,0.7,0.1,0.8
			c0.1,0.1,0.2,0.3,0.5,0.4c0.4,0.2,0.6,0.4,0.6,0.8V59l-4.1-9.6h-3.4c-0.3,0-0.5,0.3-0.5,0.9c0,0.3,0,0.5,0.1,0.7
			c0.1,0.1,0.2,0.2,0.4,0.3c0.2,0.1,0.4,0.3,0.4,0.4c0.1,0.2,0.1,0.4,0.1,0.8v13.2c0.7,0.1,1.3,0.1,1.9,0.1V58l3.3,7.7
			c1.3-0.1,2.5-0.2,3.6-0.4V51.7c0-0.2,0-0.3,0.1-0.4c0.1-0.1,0.3-0.2,0.5-0.3c0.1-0.1,0.2-0.1,0.3-0.2s0.1-0.3,0.1-0.6
			C337.6,49.7,337.5,49.4,337.3,49.4z"/>
		<path style="fill:#4C7EAB;" d="M336.6,65.3v4h-2.1l-1.5-3.6C334.3,65.6,335.5,65.4,336.6,65.3z"/>
		<path style="fill:#4C7EAB;" d="M330.8,68.2c0,0.6,0,0.9,0,1c0,0.1-0.1,0.1-0.4,0.1h-3.3c-0.2,0-0.3-0.1-0.3-0.2
			c0-0.1-0.1-0.4-0.1-0.9c0-0.2,0.1-0.4,0.3-0.5c0.4-0.2,0.6-0.4,0.6-0.6v-1.4c0.7,0.1,1.3,0.1,1.9,0.1v1c0,0.4,0.2,0.6,0.6,0.8
			C330.6,67.6,330.8,67.9,330.8,68.2z"/>
		<path style="fill:none;stroke:#5E9BD3;stroke-miterlimit:10;" d="M230.2,60.7c-0.4,0-0.8,0-1.2,0"/>
	</g>
	<g>
		<path style="fill:#5E9BD3;" d="M208.8,79.7c-0.1-0.1-0.2-0.1-0.4-0.1h-5.9c-0.3,0-0.4,0.1-0.4,0.4v0.7c0,0.2,0,0.3,0.1,0.4
			c0,0.1,0.2,0.1,0.4,0.2c0.3,0.1,0.5,0.3,0.5,0.4s0.1,0.4,0.1,0.8v10.8c1.6-0.6,3.1-1,4.6-1.4v-9.7c0-0.6,0.3-0.9,0.8-1
			c0.2,0,0.3-0.1,0.3-0.2c0-0.1,0.1-0.4,0.1-0.8C208.9,80,208.9,79.8,208.8,79.7z"/>
		<path style="fill:#4C7EAB;" d="M208.8,98.5V99c0,0.3,0,0.4-0.1,0.4c0,0-0.2,0-0.4,0h-6c-0.2,0-0.3-0.1-0.3-0.3c0-0.6,0-1,0.1-1.1
			c0-0.1,0.2-0.2,0.4-0.3c0.4-0.1,0.7-0.4,0.7-0.7v-3.8c1.6-0.6,3.1-1,4.6-1.4V97c0,0.3,0.2,0.6,0.6,0.7c0.2,0.1,0.4,0.2,0.4,0.3
			C208.8,98.2,208.8,98.3,208.8,98.5z"/>
		<path style="fill:#5E9BD3;" d="M220.1,79.6h-3.4c-0.1,0-0.2,0-0.3,0.1c0,0.1-0.1,0.2-0.1,0.4c0,0.4,0,0.7,0.1,0.8
			c0.1,0.1,0.2,0.3,0.5,0.4c0.4,0.2,0.6,0.4,0.6,0.8v7.1l-4.1-9.6H210c-0.3,0-0.5,0.3-0.5,0.9c0,0.3,0,0.5,0.1,0.7
			c0.1,0.1,0.2,0.2,0.4,0.3c0.2,0.1,0.4,0.3,0.4,0.4c0.1,0.2,0.1,0.4,0.1,0.8v8.5c0.7-0.2,1.3-0.3,1.9-0.4v-2.5l1,2.4
			c2.1-0.4,4.1-0.6,5.9-0.8V82c0-0.2,0-0.3,0.1-0.4c0.1-0.1,0.3-0.2,0.5-0.3c0.1-0.1,0.2-0.1,0.3-0.2s0.1-0.3,0.1-0.6
			C220.4,79.9,220.3,79.7,220.1,79.6z"/>
		<path style="fill:#4C7EAB;" d="M219.4,89.8v9.7h-2.1l-3.8-8.9C215.6,90.2,217.6,90,219.4,89.8z"/>
		<path style="fill:#4C7EAB;" d="M213.6,98.4c0,0.6,0,0.9,0,1c0,0.1-0.1,0.1-0.4,0.1H210c-0.2,0-0.3-0.1-0.3-0.2
			c0-0.1-0.1-0.4-0.1-0.9c0-0.2,0.1-0.4,0.3-0.5c0.4-0.2,0.6-0.4,0.6-0.6v-6.1c0.7-0.2,1.3-0.3,1.9-0.4v6.1c0,0.4,0.2,0.6,0.6,0.8
			C213.5,97.9,213.6,98.1,213.6,98.4z"/>
		<path style="fill:#5E9BD3;" d="M232,82c-1.1-1.6-2.5-2.3-4.2-2.3h-5.9c-0.4,0-0.7,0.1-0.8,0.2c-0.1,0.1-0.2,0.3-0.2,0.6
			c0,0.4,0,0.7,0.1,0.8c0.1,0.1,0.2,0.2,0.4,0.3c0.3,0.1,0.4,0.2,0.4,0.4v7.8c1.7,0,3.2,0,4.6,0.1v-8.7h0.5c0.5,0,0.9,0.2,1.1,0.5
			c0.3,0.3,0.4,0.8,0.4,1.3v7c1.3,0.1,3.1,0.3,5.2,0.6c0-0.3,0-0.6,0-0.9C233.7,86.1,233.1,83.5,232,82z"/>
		<path style="fill:#4C7EAB;" d="M233.7,90.6c-0.1,2.9-0.6,5-1.6,6.5c-1.1,1.6-2.5,2.4-4.2,2.4h-6.5c-0.2,0-0.3,0-0.4-0.1
			c-0.1-0.1-0.1-0.3-0.1-0.6c0-0.4,0-0.6,0-0.7c0-0.1,0.1-0.2,0.4-0.3c0.5-0.2,0.7-0.6,0.7-1.1v-7.1c1.7,0,3.2,0,4.6,0.1v8.4h0.7
			c0.5,0,0.8-0.2,1-0.6c0.2-0.4,0.3-1.1,0.3-2v-5.6C229.8,90.1,231.6,90.2,233.7,90.6z"/>
		<path style="fill:#5E9BD3;" d="M244.6,79.6H242c-0.1,0-0.3,0-0.3,0.1c-0.1,0.1-0.1,0.3-0.1,0.6c0,0.4,0.1,0.8,0.4,1
			c0.2,0.1,0.3,0.3,0.3,0.4s0.1,0.3,0.1,0.5v9.9c0.6,0.1,1.2,0.3,1.8,0.4V82.2c0-0.4,0.2-0.7,0.6-0.8c0.2-0.1,0.3-0.1,0.3-0.2
			c0-0.1,0-0.2,0-0.5v-0.6C245.1,79.8,244.9,79.6,244.6,79.6z M240.5,79.6h-5.3c-0.3,0-0.4,0.1-0.5,0.2c-0.1,0.1-0.1,0.4-0.1,0.9
			c0,0.2,0,0.4,0.1,0.4c0,0.1,0.1,0.1,0.3,0.2c0.4,0.2,0.5,0.4,0.5,0.8v8.7c1.4,0.2,3,0.5,4.6,0.8v-9.5c0-0.3,0-0.5,0.1-0.6
			c0.1-0.1,0.2-0.2,0.4-0.3c0.2-0.1,0.4-0.4,0.4-0.8c0-0.4,0-0.6-0.1-0.7C240.8,79.7,240.7,79.6,240.5,79.6z"/>
		<path style="fill:#4C7EAB;" d="M244.2,92.5v3.1c0,1.3-0.4,2.3-1.1,3c-0.7,0.7-1.7,1.1-3.1,1.1c-1.5,0-2.6-0.4-3.3-1.2
			c-0.8-0.8-1.2-1.9-1.2-3.4v-4.3c1.4,0.2,3,0.5,4.6,0.8V96c0,0.4,0.1,0.7,0.3,0.9c0.2,0.2,0.5,0.4,0.8,0.4c0.3,0,0.6-0.1,0.8-0.4
			c0.2-0.3,0.3-0.6,0.3-0.9v-3.9C242.9,92.3,243.5,92.4,244.2,92.5z"/>
		<path style="fill:#5E9BD3;" d="M253.8,91.2c-0.4-1.1-1.4-2.8-2.8-5.2c-1.2-2.1-1.9-3.5-1.9-4.2c0-0.6,0.2-0.9,0.6-0.9
			c0.6,0,1.2,0.8,2,2.5c0.3,0.8,0.6,1.2,0.7,1.3c0.1,0.1,0.4,0.2,0.8,0.2c0.4,0,0.6,0,0.7-0.1c0.1,0,0.1-0.2,0.1-0.3
			c0,0,0-0.2-0.1-0.4l-0.7-4.2c0-0.3-0.1-0.4-0.2-0.5c-0.4-0.1-0.6-0.1-0.7-0.1c-0.2,0-0.4,0.1-0.6,0.3c-0.2,0.3-0.4,0.5-0.4,0.6
			c-0.9-0.6-1.7-0.9-2.3-0.9c-0.9,0-1.7,0.4-2.4,1.3c-0.6,0.9-1,2-1,3.5c0,1.3,0.3,2.6,0.8,3.8c0.5,1.2,1.5,2.9,2.8,5
			c0.3,0.4,0.5,0.8,0.7,1.2c1.7,0.5,2.9,0.9,4.3,1.2c0-0.1,0-0.3,0-0.4C254.4,93.5,254.2,92.3,253.8,91.2z"/>
		<path style="fill:#4C7EAB;" d="M254.4,95.3c-0.1,1.4-0.4,2.4-1.1,3.2c-0.7,0.8-1.6,1.3-2.5,1.3c-0.6,0-1.2-0.2-1.7-0.5
			c-0.2-0.1-0.4-0.2-0.5-0.2c-0.1,0-0.2,0.1-0.3,0.2c-0.1,0.3-0.5,0.5-1,0.5c-0.2,0-0.3,0-0.4-0.1c-0.1-0.1-0.1-0.2-0.2-0.5
			l-0.6-4.1c-0.1-0.5-0.1-0.8-0.1-0.8c0-0.2,0.2-0.4,0.7-0.4c0.6,0,0.9,0.1,1,0.2c0.1,0.2,0.3,0.5,0.5,1.1c0.7,2,1.4,3,2.2,3
			c0.3,0,0.5-0.1,0.7-0.3c0.2-0.2,0.3-0.4,0.3-0.7c0-0.5-0.2-1.1-0.6-1.8c-0.2-0.4-0.4-0.8-0.7-1.2C251.8,94.6,253,95,254.4,95.3z"
			/>
		<path style="fill:#5E9BD3;" d="M266.2,83l-0.2-2.5c0-0.4-0.1-0.6-0.1-0.7c-0.1-0.1-0.2-0.1-0.5-0.1h-9c-0.4,0-0.6,0.1-0.7,0.2
			c-0.1,0.1-0.2,0.3-0.2,0.7l-0.1,2.9c0,0.1,0,0.3,0,0.4c0,0.3,0.1,0.4,0.2,0.5c0.1,0.1,0.3,0.1,0.7,0.1c0.4,0,0.6-0.1,0.7-0.2
			c0.1-0.1,0.2-0.4,0.3-0.9c0.1-1.1,0.2-1.7,0.4-2c0.1-0.2,0.3-0.4,0.4-0.4h0.6v14.9c1.6,0.2,3.1,0.2,4.6,0.2V81h0.4
			c0.2,0,0.4,0.2,0.6,0.7c0.2,0.5,0.3,1,0.4,1.8c0.1,0.4,0.2,0.7,0.3,0.8c0.1,0.1,0.4,0.1,0.8,0.1c0.3,0,0.5-0.1,0.6-0.2
			c0.1-0.1,0.1-0.3,0.1-0.6C266.2,83.4,266.2,83.2,266.2,83z"/>
		<path style="fill:#4C7EAB;" d="M264,98.7c0,0.4,0,0.7-0.1,0.7c-0.1,0.1-0.2,0.1-0.5,0.1H258c-0.2,0-0.4,0-0.4-0.1
			c-0.1-0.1-0.1-0.3-0.1-0.7c0-0.5,0.1-0.7,0.4-0.8c0.2-0.1,0.4-0.2,0.5-0.3c0.1-0.1,0.1-0.3,0.1-0.5v-1.2c1.6,0.2,3.1,0.2,4.6,0.2
			v0.7c0,0.5,0.2,0.8,0.6,0.9c0.2,0.1,0.3,0.2,0.3,0.3C264,98.1,264,98.3,264,98.7z"/>
		<path style="fill:#5E9BD3;" d="M275.9,90c2.5-0.7,3.7-2.3,3.7-4.8c0-1.7-0.5-3.1-1.6-4.1c-1.1-1-2.3-1.5-3.6-1.5h-6.8
			c-0.3,0-0.5,0.3-0.5,1c0,0.3,0,0.5,0.1,0.6c0,0.1,0.2,0.1,0.4,0.2c0.4,0.1,0.6,0.4,0.6,1v13.4c1.8-0.2,3.3-0.5,4.6-0.8v-4.2h0.6
			c1,0,1.5,0.5,1.5,1.5v2.3c1.8-0.5,2.6-0.9,4.4-1.7C278.7,91.3,277.6,90.4,275.9,90z M274.7,86.9c0,1.6-0.4,2.5-1.2,2.5h-0.8V81
			h0.4c0.6,0,1,0.1,1.2,0.4c0.3,0.3,0.4,0.8,0.4,1.5V86.9z"/>
		<path style="fill:#4C7EAB;" d="M279.9,98.5c0,0.5,0,0.8-0.1,0.8c-0.1,0.1-0.2,0.1-0.5,0.1H276c-0.4,0-0.7-0.2-1-0.7
			c-0.3-0.4-0.4-1-0.4-1.7v-2.7c1.8-0.5,2.6-0.9,4.4-1.7c0.1,0.5,0.2,1,0.2,1.6v2.9c0,0.2,0.1,0.4,0.3,0.6
			C279.8,98,279.9,98.2,279.9,98.5z"/>
		<path style="fill:#4C7EAB;" d="M273.4,98.5c0,0.5,0,0.8-0.1,0.9c-0.1,0.1-0.2,0.2-0.5,0.2h-5.2c-0.3,0-0.4-0.2-0.4-0.6
			c0-0.4,0-0.7,0-0.8c0-0.1,0.1-0.2,0.2-0.3c0.4-0.2,0.7-0.5,0.7-1.1v-1c1.8-0.2,3.3-0.5,4.6-0.8v1.9c0,0.3,0,0.5,0.1,0.6
			c0,0.1,0.1,0.2,0.3,0.3C273.3,97.9,273.4,98.1,273.4,98.5z"/>
		<path style="fill:#5E9BD3;" d="M287.4,79.7c-0.1-0.1-0.2-0.1-0.4-0.1H281c-0.3,0-0.4,0.1-0.4,0.4v0.7c0,0.2,0,0.3,0.1,0.4
			c0,0.1,0.2,0.1,0.4,0.2c0.3,0.1,0.5,0.3,0.5,0.4c0.1,0.2,0.1,0.4,0.1,0.8v9.1c1.2-0.5,2.7-1.1,4.6-1.8v-7.7c0-0.6,0.3-0.9,0.8-1
			c0.2,0,0.3-0.1,0.3-0.2c0-0.1,0.1-0.4,0.1-0.8C287.5,80,287.4,79.8,287.4,79.7z"/>
		<path style="fill:#4C7EAB;" d="M287.4,98.5V99c0,0.3,0,0.4-0.1,0.4c0,0-0.2,0-0.4,0h-6c-0.2,0-0.3-0.1-0.3-0.3c0-0.6,0-1,0.1-1.1
			c0-0.1,0.2-0.2,0.4-0.3c0.4-0.1,0.7-0.4,0.7-0.7v-5.5c1.2-0.5,2.7-1.1,4.6-1.8V97c0,0.3,0.2,0.6,0.6,0.7c0.2,0.1,0.4,0.2,0.4,0.3
			C287.4,98.2,287.4,98.3,287.4,98.5z"/>
		<path style="fill:#5E9BD3;" d="M296.5,82.9c-0.1-0.3-0.1-0.7-0.1-1c-0.1-0.9-0.2-1.5-0.3-1.8c-0.1-0.3-0.3-0.4-0.6-0.4h-4.7
			c-0.2,0-0.3,0.1-0.4,0.2c0,0.1-0.1,0.4-0.1,0.8c0,0.3,0.1,0.6,0.2,0.7c0.4,0.2,0.5,0.4,0.5,0.7c0,0.2,0,0.4-0.1,0.6l-1,6.1
			c0.6-0.2,1.2-0.3,1.9-0.5l0.6-4l0.5,3.7c1.3-0.3,2.7-0.7,4.2-1L296.5,82.9z"/>
		<path style="fill:#4C7EAB;" d="M299.5,98.6c0,0.4,0,0.7-0.1,0.8c-0.1,0.1-0.2,0.1-0.4,0.1h-5.5c-0.2,0-0.2-0.2-0.2-0.5
			c0-0.4,0-0.6,0.1-0.7c0-0.1,0.2-0.2,0.4-0.3c0.3-0.2,0.4-0.4,0.4-0.7c0-0.3-0.1-1-0.3-2h-3.1l-0.1,1.1c0,0,0,0.1,0,0.1
			c-0.1,0.2-0.1,0.5-0.1,0.6c0,0.3,0.2,0.5,0.6,0.8c0.2,0.1,0.3,0.2,0.4,0.3c0,0.1,0.1,0.3,0.1,0.6c0,0.3,0,0.5-0.1,0.6
			c0,0.1-0.1,0.1-0.3,0.1H288c-0.2,0-0.3-0.2-0.3-0.6c0-0.5,0.1-0.8,0.4-1.1c0.3-0.3,0.4-0.5,0.5-0.8l1.3-8.3
			c0.6-0.2,1.2-0.3,1.9-0.5l-0.8,5.7h2.7l-0.8-5.9c1.3-0.3,2.7-0.7,4.2-1l1.4,9.5c0.1,0.7,0.3,1.2,0.7,1.5c0.1,0.1,0.2,0.2,0.2,0.2
			C299.5,98.2,299.5,98.3,299.5,98.6z"/>
		<path style="fill:#5E9BD3;" d="M306.7,79.8c-0.1-0.1-0.2-0.2-0.4-0.2h-5.7c-0.2,0-0.3,0-0.4,0.1c0,0.1-0.1,0.3-0.1,0.7
			c0,0.3,0,0.5,0.1,0.7c0.1,0.1,0.2,0.2,0.5,0.4c0.3,0.1,0.4,0.4,0.4,0.7v4c1.5-0.3,3.1-0.6,4.6-0.8v-3.1c0-0.4,0.2-0.7,0.6-0.8
			c0.2-0.1,0.4-0.2,0.4-0.3c0.1-0.1,0.1-0.3,0.1-0.5C306.8,80.2,306.8,79.9,306.7,79.8z"/>
		<path style="fill:#4C7EAB;" d="M309.8,95.3c0,0.1,0,0.3-0.1,0.6l-0.4,2.9c-0.1,0.3-0.1,0.5-0.2,0.6c-0.1,0.1-0.2,0.1-0.5,0.1h-8.1
			c-0.3,0-0.5-0.2-0.5-0.6c0-0.3,0-0.5,0.1-0.6c0-0.1,0.1-0.2,0.3-0.2c0.5-0.1,0.7-0.6,0.7-1.3V86.1c1.5-0.3,3.1-0.6,4.6-0.8v12.8
			h0.7c0.4,0,0.6-0.1,0.8-0.4c0.2-0.3,0.4-1,0.7-2c0.1-0.4,0.2-0.6,0.4-0.7c0.1-0.1,0.4-0.1,0.7-0.1c0.4,0,0.6,0,0.7,0.1
			C309.8,95,309.8,95.1,309.8,95.3z"/>
		<path style="fill:#5E9BD3;" d="M324.8,84.3c0-0.1,0-0.1,0-0.2l-0.7-4.2c0-0.3-0.1-0.4-0.2-0.5c-0.4-0.1-0.6-0.1-0.7-0.1
			c-0.2,0-0.4,0.1-0.6,0.3c-0.2,0.3-0.4,0.5-0.4,0.6c-0.9-0.6-1.7-0.9-2.3-0.9c-0.9,0-1.7,0.4-2.4,1.3c-0.6,0.9-1,2-1,3.5
			c0,0.1,0,0.1,0,0.2c1.4,0,2.8-0.1,4.2-0.1c-0.6-1.2-0.9-2-0.9-2.5c0-0.6,0.2-0.9,0.6-0.9c0.6,0,1.2,0.8,2,2.5
			c0.2,0.4,0.3,0.7,0.4,0.9c0.1,0.2,0.2,0.4,0.3,0.4c0.1,0.1,0.4,0.2,0.8,0.2c0.4,0,0.6,0,0.7-0.1c0.1,0,0.1-0.2,0.1-0.3
			C324.9,84.4,324.9,84.4,324.8,84.3z"/>
		<path style="fill:#4C7EAB;" d="M325.2,94.8c0,1.6-0.4,2.8-1.1,3.6c-0.7,0.8-1.6,1.3-2.5,1.3c-0.6,0-1.2-0.2-1.7-0.5
			c-0.2-0.1-0.4-0.2-0.5-0.2c-0.1,0-0.2,0.1-0.3,0.2c-0.1,0.3-0.5,0.5-1,0.5c-0.2,0-0.3,0-0.4-0.1c-0.1-0.1-0.1-0.2-0.2-0.5
			l-0.6-4.1c-0.1-0.5-0.1-0.8-0.1-0.8c0-0.2,0.2-0.4,0.7-0.4c0.6,0,0.9,0.1,1,0.2c0.1,0.2,0.3,0.5,0.5,1.1c0.7,2,1.4,3,2.2,3
			c0.3,0,0.5-0.1,0.7-0.3c0.2-0.2,0.3-0.4,0.3-0.7c0-0.5-0.2-1.1-0.6-1.8c-0.4-0.7-0.8-1.5-1.4-2.4c-1.3-2.1-2.2-3.7-2.8-5
			c-0.5-1.2-0.8-2.4-0.8-3.6c1.4,0,2.8-0.1,4.2-0.1c0.3,0.5,0.6,1.1,1,1.7c1.4,2.4,2.3,4.2,2.8,5.2C325,92.3,325.2,93.5,325.2,94.8z
			"/>
		<path style="fill:#5E9BD3;" d="M335.6,83.4l-0.6-3.2c-0.1-0.2-0.1-0.4-0.2-0.5c-0.1-0.1-0.2-0.1-0.4-0.1h-7.9
			c-0.2,0-0.4,0-0.4,0.1c0,0.1-0.1,0.3-0.1,0.6c0,0.4,0,0.6,0.1,0.7c0,0.1,0.2,0.2,0.4,0.3c0.4,0.2,0.5,0.3,0.6,0.5v2.5
			c1.5,0.1,3.1,0.1,4.6,0.3v-3.4h0.8c0.2,0,0.4,0.1,0.6,0.4c0.2,0.3,0.4,0.8,0.7,1.5c0.1,0.4,0.3,0.7,0.4,0.8
			c0.1,0.1,0.4,0.2,0.9,0.2c0.4,0,0.6-0.1,0.6-0.3C335.6,83.7,335.6,83.5,335.6,83.4z"/>
		<path style="fill:#4C7EAB;" d="M335.8,95.2c0,0.1,0,0.2,0,0.4l-0.5,2.8c-0.1,0.5-0.1,0.8-0.2,0.9c-0.1,0.1-0.2,0.2-0.5,0.2h-8.2
			c-0.2,0-0.3,0-0.4-0.1c-0.1-0.1-0.1-0.4-0.1-0.8c0-0.3,0.1-0.5,0.4-0.6c0.5-0.2,0.7-0.4,0.7-0.8V84.3c1.5,0.1,3.1,0.1,4.6,0.3v3.6
			h0.8c0.2,0,0.4-0.1,0.5-0.1c0.1-0.1,0.2-0.3,0.2-0.6c0.1-0.6,0.2-0.9,0.2-1c0.1-0.1,0.2-0.2,0.3-0.2c0.7,0,1,0,1.1,0.1
			c0.1,0.1,0.1,0.3,0.1,0.6V91c0,0.3,0,0.4-0.1,0.5c-0.1,0.1-0.3,0.1-0.8,0.1c-0.3,0-0.5-0.1-0.6-0.2c-0.1-0.1-0.2-0.4-0.3-0.9
			c-0.1-0.4-0.2-0.7-0.3-0.8c-0.1-0.1-0.2-0.1-0.4-0.1h-1v8.5h0.7c0.4,0,0.7-0.1,0.8-0.3c0.2-0.2,0.4-0.9,0.7-2
			c0.1-0.4,0.3-0.7,0.4-0.9c0.1-0.1,0.4-0.2,0.8-0.2C335.5,94.7,335.8,94.9,335.8,95.2z"/>
		<path style="fill:#5E9BD3;" d="M347.5,81.2c-1.1-1-2.3-1.5-3.6-1.5H337c-0.3,0-0.5,0.3-0.5,1c0,0.3,0,0.5,0.1,0.6
			c0,0.1,0.2,0.1,0.4,0.2c0.4,0.1,0.6,0.4,0.6,1v3c1.5,0.3,3.1,0.6,4.6,1V81h0.4c0.6,0,1,0.1,1.2,0.4c0.3,0.3,0.4,0.8,0.4,1.5v4
			c1.3,0.4,2.7,0.9,4,1.3c0.6-0.8,0.9-1.8,0.9-3C349.1,83.5,348.6,82.2,347.5,81.2z"/>
		<path style="fill:#4C7EAB;" d="M349.4,98.5c0,0.5,0,0.8-0.1,0.8c-0.1,0.1-0.2,0.1-0.5,0.1h-3.3c-0.4,0-0.7-0.2-1-0.7
			c-0.3-0.4-0.4-1-0.4-1.7v-5c0-1-0.5-1.5-1.5-1.5h-0.6v6.1c0,0.3,0,0.5,0.1,0.6c0,0.1,0.1,0.2,0.3,0.3c0.2,0.1,0.3,0.4,0.3,0.7
			c0,0.5,0,0.8-0.1,0.9c-0.1,0.1-0.2,0.2-0.5,0.2H337c-0.3,0-0.4-0.2-0.4-0.6c0-0.4,0-0.7,0-0.8c0-0.1,0.1-0.2,0.2-0.3
			c0.5-0.2,0.7-0.5,0.7-1.1V85.4c1.5,0.3,3.1,0.6,4.6,1v3h0.8c0.8,0,1.2-0.8,1.2-2.4c1.3,0.4,2.7,0.9,4,1.3
			c-0.6,0.8-1.6,1.4-2.8,1.8c2.3,0.5,3.4,1.9,3.4,4.3v2.9c0,0.2,0.1,0.4,0.3,0.6C349.3,98,349.4,98.2,349.4,98.5z"/>
		<path style="fill:#5E9BD3;" d="M361.4,79.8c0-0.1-0.1-0.1-0.3-0.1h-3c-0.2,0-0.3,0-0.3,0.1c0,0.1-0.1,0.3-0.1,0.7v0.2
			c0,0.1,0,0.1,0,0.2c0,0.1,0.1,0.2,0.4,0.4c0.4,0.2,0.6,0.5,0.6,0.8c0,0.1,0,0.2,0,0.3l-1.8,9.2c0.6,0.2,1.2,0.4,1.7,0.5l1.9-9.4
			c0.1-0.5,0.2-0.8,0.2-0.9c0.1-0.1,0.2-0.3,0.5-0.4c0.1-0.1,0.2-0.1,0.2-0.2c0-0.1,0-0.3,0-0.7C361.5,80,361.5,79.8,361.4,79.8z
			 M355.2,81.9c0-0.4,0.2-0.7,0.5-0.8c0.2-0.1,0.2-0.2,0.3-0.3c0-0.5,0-0.7,0-0.7c0-0.3-0.1-0.5-0.3-0.5h-5.6
			c-0.2,0-0.3,0.1-0.3,0.4v0.2c0,0,0,0.1,0,0.2c0,0.1,0,0.2,0,0.3c0,0.1,0,0.1,0,0.2c0,0.2,0,0.3,0.1,0.3c0,0.1,0.1,0.1,0.3,0.2
			c0.3,0.2,0.5,0.5,0.6,0.9l1.5,7.5c1.5,0.6,3.1,1.1,4.6,1.7l-1.6-9.2C355.2,82.1,355.2,82,355.2,81.9z"/>
		<path style="fill:#4C7EAB;" d="M358.7,92l-1.3,6.6l-0.2,1c0,0.1-0.1,0.1-0.3,0.1h-2.5c-0.1,0-0.2,0-0.2-0.1
			c-0.1-0.1-0.1-0.4-0.2-1l-1.7-8.8c1.5,0.6,3.1,1.1,4.6,1.7l0.1,0.3l0.1-0.3C357.5,91.7,358.1,91.9,358.7,92z"/>
		<path style="fill:#5E9BD3;" d="M368.7,79.7c-0.1-0.1-0.2-0.1-0.4-0.1h-5.9c-0.3,0-0.4,0.1-0.4,0.4v0.7c0,0.2,0,0.3,0.1,0.4
			c0,0.1,0.2,0.1,0.4,0.2c0.3,0.1,0.5,0.3,0.5,0.4c0.1,0.2,0.1,0.4,0.1,0.8v10.6c1.5,0.3,3.1,0.5,4.6,0.7V82.2c0-0.6,0.3-0.9,0.8-1
			c0.2,0,0.3-0.1,0.3-0.2c0-0.1,0.1-0.4,0.1-0.8C368.8,80,368.8,79.8,368.7,79.7z"/>
		<path style="fill:#4C7EAB;" d="M368.7,98.5V99c0,0.3,0,0.4-0.1,0.4c-0.1,0-0.2,0-0.4,0h-6c-0.2,0-0.3-0.1-0.3-0.3
			c0-0.6,0-1,0.1-1.1c0-0.1,0.2-0.2,0.4-0.3c0.4-0.1,0.7-0.4,0.7-0.7v-4c1.5,0.3,3.1,0.5,4.6,0.7V97c0,0.3,0.2,0.6,0.6,0.7
			c0.2,0.1,0.4,0.2,0.4,0.3C368.7,98.2,368.7,98.3,368.7,98.5z"/>
		<path style="fill:#5E9BD3;" d="M378.9,84.3l-0.3-4c0-0.5-0.1-0.8-0.2-0.9c-0.1-0.1-0.2-0.2-0.3-0.2h-0.6c-0.1,0-0.3,0.1-0.4,0.3
			c-0.2,0.2-0.3,0.3-0.4,0.3c-0.1,0-0.2-0.1-0.4-0.2c-0.4-0.3-0.9-0.5-1.5-0.5c-1,0-1.8,0.4-2.6,1.1c-0.7,0.8-1.3,1.8-1.8,3.2
			c-0.5,1.4-0.7,3.3-0.7,5.6c0,1.8,0.1,3.3,0.4,4.7c1.6,0.1,3.1,0.1,4.7,0V83c0-1.3,0.3-1.9,0.8-1.9c0.6,0,1.1,0.9,1.4,2.7
			c0.1,0.7,0.3,1.2,0.4,1.3c0.1,0.2,0.4,0.3,0.7,0.3c0.3,0,0.5-0.1,0.6-0.2c0.1-0.1,0.1-0.3,0.1-0.6C379,84.5,379,84.4,378.9,84.3z"
			/>
		<path style="fill:#4C7EAB;" d="M378.9,95.6c0,1.2-0.4,2.1-1.1,2.9c-0.7,0.8-1.6,1.2-2.6,1.2c-1,0-1.9-0.3-2.7-1
			c-0.8-0.7-1.4-1.8-2-3.4c-0.2-0.4-0.3-0.9-0.4-1.4c1.6,0.1,3.1,0.1,4.7,0v2.9c0,0.9,0.3,1.4,0.8,1.4c0.7,0,1.1-0.8,1.2-2.3
			c0-0.4,0.1-0.8,0.3-0.9c0.1-0.2,0.5-0.3,0.9-0.3c0.3,0,0.6,0.1,0.7,0.2C378.8,95,378.9,95.3,378.9,95.6z"/>
		<path style="fill:#5E9BD3;" d="M389.2,83.4l-0.6-3.2c0-0.2-0.1-0.4-0.2-0.5c-0.1-0.1-0.2-0.1-0.4-0.1h-7.9c-0.2,0-0.4,0-0.4,0.1
			c-0.1,0.1-0.1,0.3-0.1,0.6c0,0.4,0,0.6,0.1,0.7c0,0.1,0.2,0.2,0.4,0.3c0.4,0.2,0.5,0.3,0.6,0.5v11.4c1.5-0.3,3.1-0.7,4.6-1.1v-2.5
			h1c0.2,0,0.3,0,0.4,0.1c0.1,0.1,0.2,0.4,0.3,0.8c0.1,0.5,0.2,0.8,0.3,0.9c0.1,0.1,0.2,0.1,0.3,0.1h0c0.1,0,0.1,0,0.2,0
			c0.4,0,0.7,0,0.8-0.1c0,0,0.1-0.1,0.1-0.1c0-0.1,0-0.2,0-0.4v-4.1c0-0.4,0-0.6-0.1-0.6c-0.1-0.1-0.5-0.1-1.1-0.1
			c-0.1,0-0.2,0.1-0.3,0.2c-0.1,0.1-0.1,0.5-0.2,1c-0.1,0.3-0.1,0.5-0.2,0.6c-0.1,0.1-0.3,0.1-0.5,0.1h-0.8v-7h0.8
			c0.2,0,0.4,0.1,0.6,0.4c0.2,0.3,0.4,0.8,0.7,1.5c0.1,0.4,0.3,0.7,0.4,0.8c0.1,0.1,0.4,0.2,0.9,0.2c0.4,0,0.6-0.1,0.6-0.3
			C389.2,83.7,389.2,83.5,389.2,83.4z"/>
		<path style="fill:#4C7EAB;" d="M389.4,95.2c0,0.1,0,0.2,0,0.4l-0.5,2.8c-0.1,0.5-0.1,0.8-0.2,0.9c-0.1,0.1-0.2,0.2-0.5,0.2H380
			c-0.2,0-0.3,0-0.4-0.1c-0.1-0.1-0.1-0.4-0.1-0.8c0-0.3,0.1-0.5,0.4-0.6c0.5-0.2,0.7-0.4,0.7-0.8v-3.9c1.5-0.3,3.1-0.7,4.6-1.1v6
			h0.7c0.4,0,0.7-0.1,0.8-0.3c0.2-0.2,0.4-0.9,0.7-2c0.1-0.4,0.3-0.7,0.4-0.9c0.1-0.1,0.4-0.2,0.8-0.2
			C389.1,94.7,389.4,94.9,389.4,95.2z"/>
		<path style="fill:#5E9BD3;" d="M398.4,84.1l-0.7-4.2c0-0.3-0.1-0.4-0.2-0.5c-0.4-0.1-0.6-0.1-0.7-0.1c-0.2,0-0.4,0.1-0.6,0.3
			c-0.2,0.3-0.4,0.5-0.4,0.6c-0.9-0.6-1.7-0.9-2.3-0.9c-0.9,0-1.7,0.4-2.4,1.3c-0.6,0.9-1,2-1,3.5c0,1.3,0.3,2.6,0.8,3.8
			c0.3,0.8,0.8,1.7,1.4,2.8c1.5-0.2,3.3-0.4,5.3-0.5c-0.5-1-1.3-2.4-2.3-4.2c-1.2-2.1-1.9-3.5-1.9-4.2c0-0.6,0.2-0.9,0.6-0.9
			c0.6,0,1.2,0.8,2,2.5c0.3,0.8,0.6,1.2,0.7,1.3c0.1,0.1,0.4,0.2,0.8,0.2c0.4,0,0.6,0,0.7-0.1c0.1,0,0.1-0.2,0.1-0.3
			C398.4,84.4,398.4,84.3,398.4,84.1z"/>
		<path style="fill:#4C7EAB;" d="M398.8,94.8c0,1.6-0.4,2.8-1.1,3.6c-0.7,0.8-1.6,1.3-2.5,1.3c-0.6,0-1.2-0.2-1.7-0.5
			c-0.2-0.1-0.4-0.2-0.5-0.2c-0.1,0-0.2,0.1-0.3,0.2c-0.1,0.3-0.4,0.5-1,0.5c-0.2,0-0.3,0-0.4-0.1c-0.1-0.1-0.1-0.2-0.2-0.5
			l-0.6-4.1c-0.1-0.5-0.1-0.8-0.1-0.8c0-0.2,0.2-0.4,0.7-0.4c0.6,0,0.9,0.1,1,0.2c0.1,0.2,0.3,0.5,0.5,1.1c0.7,2,1.4,3,2.2,3
			c0.3,0,0.5-0.1,0.7-0.3c0.2-0.2,0.3-0.4,0.3-0.7c0-0.5-0.2-1.1-0.6-1.8s-0.8-1.5-1.4-2.4c-0.5-0.8-0.9-1.5-1.3-2.2
			c1.5-0.2,3.3-0.4,5.3-0.5c0.2,0.4,0.4,0.8,0.5,1.1C398.6,92.3,398.8,93.5,398.8,94.8z"/>
		<path style="fill:none;stroke:#5E9BD3;stroke-miterlimit:10;" d="M356.9,91.5c0,0-0.1,0-0.1,0"/>
		<path style="fill:none;stroke:#5E9BD3;stroke-miterlimit:10;" d="M292.9,87.9c-0.4,0.1-0.7,0.2-1.1,0.3"/>
	</g>
</g>
</svg>
