
<svg version="1.1" id="Layer_1" xmlns="http://www.w3.org/2000/svg" xmlns:xlink="http://www.w3.org/1999/xlink" x="0px" y="0px"
	 viewBox="0 0 752 400" enable-background="new 0 0 752 400" xml:space="preserve" style="height: 120px; width: 400px">
<g id="Arrow_25">
</g>
<g>
	<g>
		<polygon fill="#5E9BD3" points="61.4,153.2 58,146.2 241.3,59 273.6,74.8 270.2,81.8 241.3,67.6 		"/>
	</g>
	<g>
		<path fill="#5E9BD3" d="M570.1,97.8"/>
		<path fill="none" stroke="#FFFFFF" stroke-width="6" d="M570.1,97.8"/>
	</g>
	<g>
		<polygon fill="#5E9BD3" points="240.4,101.2 236.8,94.4 380.8,17.6 523.7,94.4 520,101.2 380.8,26.4 		"/>
	</g>
	<g>
		<polygon fill="#5E9BD3" points="697.2,153.2 520.4,67.7 491.1,84.3 487.3,77.6 520.1,58.9 700.6,146.2 		"/>
	</g>
	<g>
		<g>
			<g>
				<path fill="#5E9BD3" d="M92.7,220.6c3.9-0.3,5.9-0.4,9.8-0.7c0-14.2,0-28.4,0.1-42.5c0-1.3-0.1-2.2-0.3-2.6
					c-0.2-0.4-0.7-0.9-1.5-1.4c-0.9-0.5-1.4-2-1.4-4.4c0-3,0.1-4.9,0.3-5.5c0.2-0.7,0.8-1.1,1.7-1.2c10.7-1.4,16.1-2.3,26.8-4.4
					c1.2-0.2,1.9-0.1,2.2,0.4c0.2,0.5,0.4,2.3,0.4,5.4c0,1.9-0.1,3.1-0.4,3.5c-0.3,0.4-1.1,1.2-2.5,2.4c-1.5,1.4-2.3,3.2-2.3,5.6
					c-0.1,35.1-0.2,70.1-0.3,105.2c0,2.6,0.9,4.7,2.6,6.2c1.4,1.2,2.1,2.3,2.1,3.3c0,2.1,0,3.1,0,5.1c0,1.1-0.1,1.8-0.4,2.1
					c-0.2,0.3-1,0.5-2.1,0.5c-10.7,0-16,0-26.7,0c-0.9,0-1.5-0.2-1.7-0.6c-0.2-0.4-0.3-2.4-0.3-5.9c0-1.8,0.6-3.2,1.7-4.2
					c1.3-1.2,1.9-2.6,1.9-4.2c0-17.6,0-35.3,0.1-52.9c-3.9,0.3-5.9,0.4-9.8,0.6c0,17.6,0,35.2,0,52.8c0,1.7,0.6,3.1,1.6,4.2
					c1.1,1.1,1.6,2.7,1.6,4.8c0,2.9-0.1,4.5-0.4,4.9c-0.2,0.4-0.7,0.6-1.5,0.6c-10.7,0-16.1,0-26.9,0c-0.9,0-1.4-0.3-1.6-0.7
					c-0.2-0.5-0.3-2.4-0.3-5.8c0-1.6,0.1-2.6,0.3-3.1c0.2-0.5,0.8-1.1,1.7-1.8c1.7-1.2,2.6-2.8,2.6-4.8c0-33.2,0-66.4,0-99.6
					c0-1.6-0.8-3.1-2.3-4.5c-1.5-1.4-2.3-3.5-2.3-6.3c0-2.9,0.2-4.6,0.5-5.2c0.3-0.6,1.1-0.9,2.3-0.9c10-0.1,15.1-0.5,25.2-1.5
					c1.1-0.1,1.8,0.1,2.2,0.5c0.4,0.5,0.5,1.6,0.5,3.5c0,1.5,0,2.3,0,3.8c0,1-0.5,1.9-1.4,2.8c-1.3,1.1-1.9,2.7-1.9,4.8
					C92.7,192.6,92.8,206.6,92.7,220.6z"/>
				<path fill="#5E9BD3" d="M134.5,163.3c0-1.7,0-2.6,0-4.3c0-1.7,0.7-2.6,2-2.9c9.9-2.1,19.8-4.5,29.7-7c1.1-0.3,1.8-0.3,2.2,0
					c0.3,0.3,0.5,1.4,0.5,3.3c0,2.9-0.1,4.8-0.4,5.6c-0.2,0.8-0.7,1.4-1.5,1.7c-2.6,1.3-3.8,3.8-3.9,7.8c-0.2,37.7-0.5,75.4-0.6,113
					c0,2.2,0.9,3.9,2.7,5.2c1.2,0.8,1.9,1.5,2.1,2.1c0.2,0.6,0.4,1.7,0.4,3.2c0,1.3,0,1.9,0,3.2c0,1.7-0.1,2.7-0.4,2.9
					c-0.2,0.2-0.9,0.3-1.9,0.3c-10,0-19.9,0-29.9,0c-1.1,0-1.7-0.6-1.7-1.7c0-3.8,0.1-6.3,0.3-7.1c0.2-0.9,0.9-1.6,2.2-2.1
					c2.2-0.8,3.3-2.4,3.3-4.8c0.1-35.6,0.3-71.3,0.4-106.9c0-2.4-0.2-4.2-0.6-5.3c-0.4-1.1-1.3-1.9-2.7-2.4c-1-0.4-1.7-0.8-1.9-1.2
					C134.6,165.5,134.5,164.6,134.5,163.3z"/>
				<path fill="#5E9BD3" d="M214.4,289.1c-3.7,6.8-8.3,9.9-13.6,9.8c-10.9-0.1-17.4-11.7-20.5-20.6c-6-17.2-7.8-36.9-7.7-54.9
					c0.1-20.1,1.6-42.3,9.5-60.8c4.4-10.1,9.9-22.3,21.7-25.8c3.9-1.1,7.5-0.8,10.6,1.2c1,0.6,1.7,0.8,2.3,0.7
					c0.7-0.2,1.4-1.4,1.9-3.4c0.5-1.9,1.4-2.9,2.6-3.2c0.3-0.1,0.4-0.1,0.7-0.2c0.8-0.1,1.2-0.2,2-0.4c1.3-0.1,2.1,0.9,2.4,3.1
					c1.4,9.6,2.6,19.3,3.7,29c0.4,3.3,0.6,5.5,0.6,6.7c0,2.5-1.1,3.9-3.3,4.4c-2.1,0.4-3.5,0.2-4.1-0.7c-0.6-0.9-1.8-4.4-3.6-9.9
					c-2.4-7.6-4.5-12.2-6.4-14.6c-1.9-2.4-3.8-3.3-6-2.7c-5.6,1.5-8.5,8.3-8.6,22.4c-0.3,36.4-0.6,72.8-0.9,109.1
					c0,7.3,1.5,10.6,4.5,10.6c3.3,0,5-3.4,5.1-10.8c0.1-17.8,0.3-35.6,0.4-53.4c0-3.6-0.7-5.9-2.1-6.8c-1.5-0.9-2.3-3.1-2.3-6.6
					c0-3.8,0.3-6.1,0.7-6.9c0.4-0.8,1.3-1.3,2.7-1.6c10.4-1.8,15.6-2.6,26-4.3c1.3-0.2,2.1,0.1,2.5,0.8c0.4,0.8,0.6,2.6,0.6,5.6
					c0,3.1-0.2,5.2-0.5,6.3c-0.3,1.1-0.9,2.1-2,2.9c-1.5,1.2-2.2,3.3-2.3,6.5c-0.2,23.5-0.4,47-0.6,70.5c0,3.6-0.2,5.7-0.5,6.5
					c-0.3,0.9-1.2,1.3-2.6,1.3c-1.3,0-2.2-0.1-2.7-0.4c-0.5-0.2-1.3-1-2.3-2.3C219.9,292.7,217.2,290.2,214.4,289.1z"/>
				<path fill="#5E9BD3" d="M267.1,196.6c3.9-0.5,5.9-0.7,10-1.2c0.2-19,0.4-37.9,0.5-56.9c0-1.6-0.1-2.6-0.3-3.1
					c-0.2-0.5-0.7-1.1-1.6-1.7c-0.9-0.6-1.5-2.3-1.5-5c0-3.4,0.1-5.4,0.4-6.2c0.2-0.8,0.9-1.2,1.9-1.4c9.4-1.8,18.9-3.4,28.3-4.7
					c1.2-0.2,1.9,0,2.2,0.6c0.2,0.6,0.3,2.6,0.3,6.3c0,2.2-0.2,3.6-0.5,4.1c-0.3,0.5-1.1,1.3-2.6,2.7c-1.6,1.5-2.4,3.7-2.4,6.6
					c-0.8,46.8-1.6,93.6-2.4,140.4c-0.1,3.3,0.8,5.7,2.5,7.6c1.4,1.4,2.1,2.7,2.1,3.9c0,2.4-0.1,3.6-0.1,5.9c0,1.2-0.2,2-0.4,2.4
					c-0.2,0.4-1,0.6-2.2,0.6c-10.7,0-16,0-26.7,0.1c-0.9,0-1.5-0.2-1.7-0.7c-0.2-0.4-0.3-2.5-0.3-6.5c0-2,0.6-3.6,1.7-4.9
					c1.3-1.4,1.9-3.1,2-5c0.2-23.8,0.4-47.5,0.7-71.3c-4.1,0.4-6.1,0.6-10,1c-0.2,23.7-0.4,47.3-0.5,71c0,2.1,0.6,3.7,1.6,4.9
					c1.1,1.3,1.6,3.2,1.6,5.4c0,3.2-0.1,4.9-0.4,5.3c-0.2,0.5-0.7,0.7-1.5,0.7c-10.7,0-16.1,0-26.9,0c-0.9,0-1.4-0.3-1.6-0.8
					c-0.2-0.5-0.3-2.5-0.3-6.1c0-1.7,0.1-2.9,0.3-3.4c0.2-0.6,0.8-1.2,1.7-2.1c1.7-1.4,2.6-3.3,2.6-5.7c0.3-44.1,0.8-88.3,1.1-132.4
					c0-1.9-0.8-3.5-2.2-4.8c-1.5-1.3-2.2-3.6-2.2-6.5c0-3.2,0.2-5,0.5-5.7c0.3-0.7,1.1-1.2,2.3-1.5c10-2.5,15-3.7,25-5.8
					c1.1-0.2,1.8-0.1,2.2,0.3c0.4,0.5,0.6,1.7,0.6,3.8c0,1.7,0,2.5,0,4.3c-0.1,1.1-0.6,2.2-1.5,3.3c-1.3,1.3-1.9,3.3-1.9,5.8
					C267.4,159.1,267.3,177.8,267.1,196.6z"/>
				<path fill="#5E9BD3" d="M351.7,288.1c-3.8,7.6-8.4,11-13.7,10.9c-12.4-0.2-17.1-14.2-20.2-23.5c-6.9-20.8-7.2-45.4-6.8-67.7
					c0.4-24.1,1.4-51,10.4-73.1c3.8-9.4,9.3-23.4,21.3-24.4c3.7-0.3,7.1,1.1,10,4.1c0.9,0.9,1.6,1.4,2.1,1.3c0.7,0,1.3-1.1,1.8-3.2
					c0.5-1.9,1.3-2.8,2.5-2.9c0.3,0,0.4,0,0.7,0c0.7,0.1,1.1,0.1,1.8,0.2c1.2,0.3,2,1.6,2.3,4.1c1.3,11.1,2.3,22.2,3.4,33.4
					c0.4,3.8,0.5,6.4,0.5,7.7c0,2.8-1.1,4.2-3.1,4.2c-2,0-3.3-0.6-3.9-1.8c-0.6-1.2-1.7-5.4-3.4-12.2c-2.2-9.2-4.2-15.1-5.9-18.3
					c-1.7-3.2-3.6-4.7-5.6-4.6c-5.4,0.2-8.2,7.2-8.5,23.7c-0.7,43.2-1.4,86.5-2.1,129.7c-0.1,8.4,1.3,12.1,4.4,12.1
					c3.3,0,5.1-3.8,5.2-12.2c0.3-20.8,0.6-41.5,0.9-62.3c0.1-4.3-0.6-7.1-2-8.3c-1.5-1.3-2.2-4.1-2.2-8.2c0.1-4.5,0.3-7.2,0.7-8.1
					c0.4-0.9,1.3-1.4,2.6-1.4c10.1-0.3,15.1-0.3,25-0.3c1.2,0,2,0.5,2.4,1.4c0.4,0.9,0.6,3,0.6,6.4c0,3.5-0.2,5.8-0.4,7
					c-0.3,1.2-0.9,2.2-1.9,2.9c-1.4,1.1-2.2,3.4-2.2,7c-0.2,26.3-0.4,52.5-0.6,78.8c0,3.9-0.2,6.2-0.6,7.2c-0.3,0.9-1.2,1.4-2.6,1.4
					c-1.3,0-2.2-0.1-2.7-0.4c-0.5-0.3-1.3-1.1-2.3-2.5C357.1,292.1,354.4,289.3,351.7,288.1z"/>
				<path fill="#5E9BD3" d="M403.5,217.7c0.1,19.5,0.2,39,0.3,58.5c0,2.5,0.1,4.1,0.3,4.9c0.2,0.8,0.7,1.7,1.5,2.6
					c1.1,1.2,1.6,3.1,1.6,5.7c0,3.8-0.2,5.9-0.6,6.7c-0.4,0.8-1.2,1.2-2.3,1.2c-10.3,0-15.5,0-25.8,0c-1.5,0-2.2-1.5-2.2-4.8
					c0-3.2,0.1-5.3,0.2-6.3c0.1-1,0.5-1.7,1.2-2.1c2.2-1.5,3.4-4.4,3.4-9c0.1-47,0.2-94,0.4-140.9c0-4.7-0.9-7.4-2.7-8.4
					c-0.9-0.6-1.5-1.1-1.7-1.7c-0.2-0.5-0.3-2.1-0.3-4.7c0-5.1,0.8-7.3,2.4-7.3c10.6,0.3,21.3,1,31.8,2.1
					c6.4,0.6,12.3,4.9,17.4,13.7c6.6,11.4,7.7,24.4,8.2,37.2c0.6,16.1-2.5,36.4-17.7,45.9c14.5,8.3,17.2,28.1,17.2,43.2
					c0.1,10.9,0.2,16.2,0.3,25.9c0,2,0.5,3.5,1.5,4.5c1.1,1.2,1.7,3,1.7,5.3c0,3.7-0.1,5.7-0.4,6.3c-0.3,0.7-1,1-2.3,1
					c-6.6,0-9.8,0-16.4,0c-2,0-3.6-1.6-4.9-5c-1.3-3.4-2-7.8-2-13.4c-0.1-15.4-0.2-30.8-0.4-46.3c-0.1-9.6-2.5-14.7-7.2-14.9
					C405.1,217.8,404.6,217.8,403.5,217.7z M403,124.4c0.1,26.3,0.3,52.5,0.4,78.8c1.5,0.1,2.3,0.1,3.9,0.2
					c3.9,0.2,5.8-8.2,5.7-24.4c-0.1-12.6-0.2-25.1-0.3-37.7c0-6.1-0.7-10.3-1.9-12.7c-1.2-2.5-3.2-3.8-5.7-4
					C404.2,124.5,403.8,124.4,403,124.4z"/>
				<path fill="#5E9BD3" d="M474.2,121.7c6.3,1.3,11.4,4.9,15.8,11.8c5.8,9,8.6,19.7,10.9,29.7c3.9,16.7,4.5,35,4.6,52.3
					c0.2,20.3-1.2,42.7-7.5,62.1c-3.3,10.1-10.8,21.3-22.8,21.3c-11.9,0-19.1-11.7-22.4-21.7c-7-21.7-8.7-46.3-9-69.1
					c-0.3-22.5,0.5-47.5,7.4-69C454.4,129.3,462.7,119.3,474.2,121.7z M479.4,144.5c0-8.3-1.8-12.3-5.3-13c-1.5-0.3-2.7,0.4-3.7,2.2
					c-1,1.8-1.5,4.1-1.5,7.1c0.4,45.5,1.1,91,1.5,136.5c0,4.1,0.6,7.1,1.6,9.1c1,2,2.2,3,3.5,3c1.5,0,2.7-1,3.7-3.2
					c0.9-2.2,1.4-4.7,1.3-7.5C480.2,234,479.7,189.2,479.4,144.5z"/>
				<path fill="#5E9BD3" d="M512.6,132.5c10.6,2.6,15.9,3.9,26.6,6.7c0.9,0.2,1.5,0.6,1.7,1.2c0.2,0.6,0.4,2.2,0.4,5
					c0,2.8-0.6,4.6-1.8,5.3c-0.9,0.5-1.5,1.1-1.8,1.8c-0.3,0.7-0.4,2.2-0.4,4.5c0.3,38.3,0.7,76.6,1,114.9c0,3,0.6,5.3,1.6,7.1
					c1.1,1.8,2.4,2.7,4.1,2.7c1.5,0,2.8-0.9,3.8-2.9c1-1.9,1.6-4.1,1.6-6.6c-0.3-37.5-0.7-75-1-112.6c0-1.8-0.1-3-0.4-3.8
					c-0.2-0.7-0.8-1.7-1.7-3c-1.4-1.9-2.1-4.5-2.1-7.5c0-2.4,0.2-3.8,0.6-4.1c0.4-0.4,1-0.5,1.7-0.3c5.3,1.4,8,2,13.3,3.4
					c1.5,0.4,2.2,1.5,2.2,3.5c0,1.6,0,2.4,0,4c0,1.8-0.1,3-0.2,3.4c-0.2,0.5-0.6,0.8-1.4,1c-1.9,0.5-2.9,2.2-2.9,5.1
					c0.2,36,0.6,72,0.9,107.9c0.1,9.8-1.7,16.9-5.3,22c-3.6,5.1-8.7,7.5-15.1,7.5c-7.3,0-12.8-2.5-16.7-8.1
					c-3.8-5.6-5.8-14.2-5.9-26.5c-0.3-37.6-0.8-75.2-1-112.9c0-2.7-0.9-4.8-2.7-6.5c-0.9-0.8-1.4-1.5-1.6-2.1
					c-0.2-0.6-0.3-1.7-0.3-3.4c0-3.5,0.1-5.5,0.4-6.3S511.2,132.2,512.6,132.5z"/>
				<path fill="#5E9BD3" d="M580.9,213.1c0.2,22.3,0.3,44.6,0.5,66.9c0,2.6,1,4.5,3.1,5.8c1.7,1.1,2.6,2.6,2.6,4.6
					c0,4-0.1,6.2-0.2,6.6c-0.1,0.4-0.7,0.6-1.8,0.6c-6.5,0-9.7,0-16.2,0c-0.8,0-1.3-0.4-1.5-1.3c-0.2-0.8-0.3-2.9-0.3-6.4
					c0-1.6,0.5-2.7,1.6-3.3c2.1-1.3,3.1-2.8,3.1-4.5c-0.2-37.8-0.6-75.7-0.8-113.5c0-2.6-0.2-4.5-0.5-5.9c-0.3-1.3-1.1-2.5-2.2-3.6
					c-1-0.9-1.7-1.9-2.1-2.7c-0.3-0.9-0.5-2.5-0.5-4.6c0-3.9,0.7-5.6,2.3-5.2c6.8,1.7,10.3,2.5,17.1,4.1
					c7.4,24.4,14.2,48.9,21.1,73.4c-0.1-17.3-0.2-34.6-0.2-51.9c0-2.7-1-4.8-3-6.4c-1.2-1-2-2-2.3-2.9c-0.4-1-0.5-2.8-0.5-5.4
					c0-1.6,0.1-2.6,0.4-2.9c0.2-0.3,0.7-0.4,1.4-0.2c6.8,1.5,10.3,2.1,17.1,3.4c1,0.3,1.4,2.2,1.4,5.6c0,2-0.1,3.3-0.3,3.8
					c-0.2,0.5-0.6,0.9-1.3,1.2c-1.4,0.5-2.3,1.1-2.7,1.7c-0.4,0.7-0.6,1.6-0.5,2.9c0.1,41.6,0.4,83.1,0.5,124.7c-4.2,0-6.2,0-10.4,0
					C596.2,269.7,588.6,241.4,580.9,213.1z"/>
				<path fill="#5E9BD3" d="M628.4,279.4c-0.1-35.1-0.2-70.3-0.3-105.4c-0.1-1.1-0.9-2.1-2.2-2.9c-1.1-0.6-1.8-1.4-2.2-2.3
					c-0.4-0.9-0.6-2.8-0.6-5.5c0-2,0.3-3.2,0.8-3.8c0.5-0.5,1.9-0.6,4.1-0.2c9.8,1.7,19.7,3,29.6,3.9c8.8,0.5,17.6,9.4,20.9,16.8
					c7,15.8,8.3,34.9,8.2,51.9c0,16.3-1.8,34.1-8,49.3c-3.1,7.5-12,16.6-21.1,16.3c-10.8,0-21.6,0-32.3,0c-0.9,0-1.5-0.3-1.9-0.8
					c-0.3-0.6-0.5-1.8-0.5-3.7c0-2.3,0.1-3.8,0.2-4.4c0.1-0.6,0.7-1.3,1.8-2C627.2,284.9,628.4,282.6,628.4,279.4z M651,172.1
					c0,38.8,0.1,77.7,0.2,116.5c1.3,0,1.9,0,3.2,0c2.3,0,4-1.3,5-3.8c1.1-2.5,1.6-7,1.6-13.6c0-28.6-0.1-57.1-0.1-85.7
					c0-3.7-0.7-6.7-2-9.1c-1.3-2.4-3.2-3.7-5.6-4C652.4,172.3,652,172.2,651,172.1z"/>
			</g>
		</g>
	</g>
	<g>
		<rect x="65.1" y="311.3" fill="#5E9BD3" width="619.4" height="6.7"/>
	</g>
	<g>
		<rect x="65.1" y="333.6" fill="none" width="619.4" height="48.8"/>
		<text transform="matrix(1 0 0 1 227.8772 377.905)" fill="#5E9BD3" font-family="'BernardMT-Condensed'" font-size="56.2725">SERVICES, INC.</text>
	</g>
</g>
</svg>
